<?xml version="1.0" encoding="utf-8"?>
<!-- Generator: Adobe Illustrator 21.1.0, SVG Export Plug-In . SVG Version: 6.00 Build 0)  -->
<svg version="1.1" id="Capa_1" xmlns="http://www.w3.org/2000/svg" xmlns:xlink="http://www.w3.org/1999/xlink" x="0px" y="0px"
	 viewBox="0 0 20 20" style="enable-background:new 0 0 20 20;" xml:space="preserve">
<style type="text/css">
	.st0{fill:#990000;}
</style>
<g>
	<path class="st0" d="M18.2,0H1.8C0.8,0,0,0.8,0,1.8v16.3c0,1,0.8,1.8,1.8,1.8h9.1v-7.2H8V9.4h2.9V6.8c0-2.9,1.8-4.5,4.4-4.5
		c1.2,0,2.3,0.1,2.6,0.1v3.1h-1.8c-1.4,0-1.7,0.7-1.7,1.7v2.2h3.4l-0.4,3.4l-2.9,0V20h3.7c1,0,1.8-0.8,1.8-1.8V1.8
		C20,0.8,19.2,0,18.2,0z"/>
</g>
</svg>
