<?xml version="1.0" encoding="utf-8"?>
<!-- Generator: Adobe Illustrator 21.1.0, SVG Export Plug-In . SVG Version: 6.00 Build 0)  -->
<svg version="1.1" id="Capa_1" xmlns="http://www.w3.org/2000/svg" xmlns:xlink="http://www.w3.org/1999/xlink" x="0px" y="0px"
	 viewBox="0 0 20 20" style="enable-background:new 0 0 20 20;" xml:space="preserve">
<style type="text/css">
	.st0{fill:#990000;}
	.st1{fill:#FFFFFF;}
</style>
<path class="st0" d="M11.3,2.2c4.6,0,8.8,4.1,7.2,9c-0.6,2-2.4,3.5-4.3,4.2c-1.2,0.4-2.6,0.5-3.6,0.5c-0.2,0-0.4,0-0.5,0
	c-0.1,0-0.1,0-0.2,0c-0.1,0-0.1,0-0.2,0c-2.7,0-6.3-0.3-8.5-3.1c2.9,0,2.3-3.3,2.7-5.2c0.6-2.9,3.5-4.9,6.3-5.3
	C10.6,2.2,10.9,2.2,11.3,2.2 M11.3,1.2c-0.4,0-0.8,0-1.2,0.1C8.5,1.5,6.9,2.1,5.6,3.1C4.2,4.3,3.2,5.7,2.9,7.4
	c-0.1,0.5-0.1,1-0.2,1.5c-0.1,0.8-0.1,1.6-0.4,2.2c-0.2,0.4-0.4,0.6-1.1,0.6c-0.4,0-0.7,0.2-0.9,0.6c-0.2,0.3-0.1,0.8,0.1,1.1
	c2.4,3.2,6.4,3.6,9.3,3.6c0.1,0,0.1,0,0.2,0c0,0,0.1,0,0.2,0c0.1,0,0.2,0,0.2,0c0.1,0,0.2,0,0.3,0c1.3,0,2.7-0.1,4-0.5
	c1.1-0.4,2.1-1,2.9-1.9c0.9-0.9,1.6-1.9,2-3c0.4-1.2,0.5-2.5,0.3-3.7c-0.2-1.1-0.6-2.2-1.3-3.1c-0.8-1.1-1.8-2-3.1-2.6
	C14.1,1.5,12.7,1.2,11.3,1.2"/>
<path class="st0" d="M9.9,7.3c0,0.5-0.4,1-1,1c-0.5,0-1-0.4-1-1c0-0.5,0.4-1,1-1C9.5,6.3,9.9,6.8,9.9,7.3"/>
<path class="st0" d="M14.6,7.3c0,0.5-0.4,1-1,1c-0.5,0-1-0.4-1-1c0-0.5,0.4-1,1-1C14.1,6.3,14.6,6.8,14.6,7.3"/>
<path class="st0" d="M11.2,12.6c-1.7,0-3.2-1.1-3.5-2.5C7.7,9.8,7.9,9.5,8.2,9.5c0.3-0.1,0.5,0.1,0.6,0.4c0.2,0.8,1.2,1.7,2.5,1.7
	c1.4,0,2.3-0.9,2.5-1.7c0.1-0.3,0.3-0.4,0.6-0.4c0.3,0.1,0.4,0.3,0.4,0.6c-0.2,0.7-0.6,1.3-1.2,1.7c-0.6,0.5-1.4,0.7-2.3,0.8
	C11.3,12.6,11.3,12.6,11.2,12.6"/>
<path class="st0" d="M4.2,16.8c0-1.1,0.9-2,2-2c1.1,0,2,0.9,2,2c0,1.1-0.9,2-2,2C5.1,18.8,4.2,17.9,4.2,16.8"/>
<path class="st1" d="M5.6,16.8c0-0.4,0.3-0.7,0.7-0.7c0.4,0,0.7,0.3,0.7,0.7c0,0.4-0.3,0.7-0.7,0.7C5.9,17.5,5.6,17.2,5.6,16.8"/>
<path class="st0" d="M11.3,16.8c0-1.1,0.9-2,2-2c1.1,0,2,0.9,2,2c0,1.1-0.9,2-2,2C12.2,18.8,11.3,17.9,11.3,16.8"/>
<path class="st1" d="M12.7,16.8c0-0.4,0.3-0.7,0.7-0.7c0.4,0,0.7,0.3,0.7,0.7c0,0.4-0.3,0.7-0.7,0.7C13,17.5,12.7,17.2,12.7,16.8"/>
</svg>
