<?xml version="1.0" encoding="utf-8"?>
<!-- Generator: Adobe Illustrator 21.1.0, SVG Export Plug-In . SVG Version: 6.00 Build 0)  -->
<svg version="1.1" id="Capa_1" xmlns="http://www.w3.org/2000/svg" xmlns:xlink="http://www.w3.org/1999/xlink" x="0px" y="0px"
	 viewBox="0 0 20 20" style="enable-background:new 0 0 20 20;" xml:space="preserve">
<style type="text/css">
	.st0{fill:#990000;}
</style>
<path class="st0" d="M10,0C4.5,0,0,4.5,0,10c0,5.5,4.5,10,10,10c5.5,0,10-4.5,10-10C20,4.5,15.5,0,10,0z M10,18.9
	c-0.9,0-1.8-0.1-2.6-0.4c0.4-0.6,0.9-1.6,1.1-2.3C8.6,15.7,9,14.1,9,14.1c0.3,0.6,1.1,1,2,1c2.7,0,4.6-2.5,4.6-5.5
	c0-2.9-2.4-5.1-5.5-5.1C6.3,4.4,4.3,7,4.3,9.8c0,1.3,0.7,2.9,1.8,3.4c0.2,0.1,0.3,0,0.3-0.1c0-0.1,0.2-0.7,0.2-1
	c0-0.1,0-0.2-0.1-0.3c-0.4-0.4-0.7-1.3-0.7-2c0-2,1.5-3.9,4-3.9c2.2,0,3.7,1.5,3.7,3.6c0,2.4-1.2,4.1-2.8,4.1
	c-0.9,0-1.5-0.7-1.3-1.6c0.2-1.1,0.7-2.2,0.7-3c0-0.7-0.4-1.3-1.1-1.3c-0.9,0-1.6,0.9-1.6,2.2c0,0.8,0.3,1.3,0.3,1.3s-0.9,3.7-1,4.4
	c-0.2,0.8-0.1,1.8,0,2.5C3.4,17,1.1,13.8,1.1,10c0-4.9,4-8.9,8.9-8.9c4.9,0,8.9,4,8.9,8.9C18.9,14.9,14.9,18.9,10,18.9z"/>
</svg>
