<?xml version="1.0" encoding="utf-8"?>
<!-- Generator: Adobe Illustrator 16.0.0, SVG Export Plug-In . SVG Version: 6.00 Build 0)  -->
<!DOCTYPE svg PUBLIC "-//W3C//DTD SVG 1.1//EN" "http://www.w3.org/Graphics/SVG/1.1/DTD/svg11.dtd">
<svg version="1.1" id="Capa_1" xmlns="http://www.w3.org/2000/svg" xmlns:xlink="http://www.w3.org/1999/xlink" x="0px" y="0px"
	 width="161.239px" height="62.19px" viewBox="0 0 161.239 62.19" enable-background="new 0 0 161.239 62.19" xml:space="preserve">
<g>
	<path fill="#1D1D1B" d="M69.208,13.839V4.965h6.413v1.048h-5.24V8.73h4.91v1.042h-4.91v3.02h5.447v1.047H69.208L69.208,13.839z
		 M76.989,11.308l0.983-0.087c0.045,0.394,0.154,0.717,0.324,0.971s0.435,0.457,0.792,0.612c0.358,0.156,0.761,0.233,1.208,0.233
		c0.398,0,0.748-0.059,1.052-0.176c0.304-0.12,0.533-0.281,0.681-0.487c0.148-0.207,0.223-0.432,0.223-0.674
		c0-0.249-0.07-0.463-0.216-0.648c-0.144-0.185-0.38-0.339-0.708-0.464c-0.212-0.083-0.678-0.21-1.402-0.385
		s-1.231-0.338-1.521-0.492c-0.376-0.196-0.656-0.441-0.841-0.732c-0.182-0.291-0.274-0.618-0.274-0.98
		c0-0.397,0.111-0.768,0.337-1.113c0.225-0.347,0.555-0.608,0.988-0.789c0.435-0.178,0.915-0.267,1.445-0.267
		c0.584,0,1.097,0.093,1.545,0.281c0.446,0.188,0.787,0.464,1.028,0.829c0.239,0.366,0.368,0.78,0.387,1.241l-1,0.076
		c-0.055-0.497-0.236-0.875-0.546-1.128c-0.311-0.254-0.766-0.381-1.372-0.381c-0.63,0-1.089,0.115-1.378,0.347
		c-0.288,0.231-0.433,0.509-0.433,0.834c0,0.285,0.102,0.518,0.306,0.699c0.202,0.183,0.724,0.37,1.571,0.561
		c0.847,0.192,1.429,0.359,1.745,0.502c0.458,0.213,0.796,0.481,1.016,0.804c0.217,0.324,0.328,0.698,0.328,1.121
		c0,0.419-0.121,0.814-0.361,1.184c-0.24,0.371-0.584,0.66-1.034,0.866c-0.448,0.206-0.956,0.308-1.515,0.308
		c-0.713,0-1.312-0.102-1.792-0.312c-0.481-0.208-0.859-0.519-1.135-0.937C77.147,12.307,77.002,11.833,76.989,11.308L76.989,11.308
		z M90.299,11.077l1.043,0.264c-0.217,0.854-0.611,1.508-1.179,1.958c-0.569,0.45-1.261,0.672-2.083,0.672
		c-0.85,0-1.538-0.173-2.069-0.516c-0.532-0.348-0.938-0.848-1.214-1.502c-0.277-0.657-0.417-1.36-0.417-2.112
		c0-0.82,0.155-1.535,0.47-2.146c0.313-0.611,0.759-1.075,1.339-1.391c0.578-0.317,1.213-0.475,1.909-0.475
		c0.788,0,1.449,0.2,1.988,0.601c0.537,0.402,0.912,0.964,1.122,1.693l-1.024,0.242c-0.185-0.574-0.448-0.991-0.796-1.252
		C89.04,6.851,88.604,6.72,88.076,6.72c-0.604,0-1.108,0.146-1.516,0.435c-0.407,0.291-0.692,0.679-0.856,1.169
		c-0.164,0.487-0.247,0.992-0.247,1.511c0,0.672,0.098,1.254,0.292,1.755c0.196,0.5,0.5,0.874,0.911,1.121
		c0.413,0.248,0.859,0.371,1.339,0.371c0.583,0,1.077-0.169,1.481-0.504C89.884,12.24,90.156,11.739,90.299,11.077L90.299,11.077z
		 M97.794,5.963h1.042v4.55c0,0.791-0.089,1.419-0.27,1.886c-0.18,0.466-0.504,0.844-0.97,1.135
		c-0.467,0.293-1.079,0.438-1.839,0.438c-0.738,0-1.343-0.127-1.81-0.382c-0.47-0.253-0.805-0.621-1.005-1.104
		c-0.202-0.481-0.299-1.139-0.299-1.973v-4.55h1.04v4.545c0,0.684,0.064,1.188,0.191,1.511c0.126,0.325,0.347,0.574,0.656,0.75
		c0.309,0.176,0.688,0.264,1.135,0.264c0.768,0,1.314-0.173,1.64-0.522c0.324-0.346,0.488-1.013,0.488-2.002L97.794,5.963
		L97.794,5.963z M100.593,13.839V5.963h5.693v0.929h-4.651v2.412h4.357v0.924h-4.357v2.681h4.836v0.93L100.593,13.839
		L100.593,13.839z M107.865,13.839V5.963h1.044v6.946h3.878v0.93H107.865L107.865,13.839z M113.162,13.839l3.027-7.876h1.12
		l3.224,7.876h-1.188l-0.919-2.386h-3.293l-0.863,2.386H113.162L113.162,13.839z M115.434,10.604h2.672l-0.824-2.18
		c-0.248-0.661-0.435-1.206-0.557-1.633c-0.101,0.506-0.241,1.006-0.425,1.505L115.434,10.604L115.434,10.604z M75.513,24.573
		l1.175,0.298c-0.245,0.963-0.689,1.699-1.328,2.207c-0.642,0.506-1.422,0.757-2.347,0.757c-0.956,0-1.733-0.193-2.332-0.582
		c-0.599-0.39-1.055-0.955-1.368-1.691c-0.312-0.74-0.47-1.533-0.47-2.38c0-0.923,0.176-1.729,0.529-2.417
		c0.355-0.689,0.857-1.211,1.51-1.568c0.651-0.357,1.367-0.535,2.151-0.535c0.888,0,1.634,0.225,2.238,0.677
		c0.606,0.452,1.027,1.087,1.264,1.907l-1.154,0.272c-0.207-0.646-0.504-1.116-0.897-1.411c-0.39-0.296-0.882-0.443-1.477-0.443
		c-0.682,0-1.25,0.164-1.708,0.49c-0.458,0.328-0.781,0.766-0.966,1.318c-0.186,0.549-0.279,1.117-0.279,1.703
		c0,0.756,0.109,1.412,0.33,1.977c0.221,0.562,0.562,0.983,1.026,1.262c0.466,0.279,0.968,0.417,1.509,0.417
		c0.656,0,1.213-0.19,1.669-0.568C75.044,25.883,75.351,25.32,75.513,24.573L75.513,24.573z M77.709,23.849
		c0-1.307,0.351-2.33,1.054-3.069c0.701-0.74,1.608-1.109,2.718-1.109c0.726,0,1.382,0.174,1.965,0.521
		c0.584,0.349,1.028,0.833,1.335,1.455c0.307,0.621,0.459,1.326,0.459,2.112c0,0.799-0.16,1.514-0.482,2.143
		c-0.322,0.63-0.781,1.108-1.371,1.433c-0.591,0.324-1.228,0.486-1.912,0.486c-0.742,0-1.405-0.178-1.987-0.538
		c-0.584-0.357-1.025-0.847-1.327-1.467C77.859,25.197,77.709,24.541,77.709,23.849L77.709,23.849z M78.784,23.865
		c0,0.95,0.254,1.696,0.765,2.243c0.512,0.547,1.151,0.82,1.922,0.82c0.783,0,1.43-0.275,1.936-0.827
		c0.506-0.553,0.761-1.336,0.761-2.349c0-0.641-0.11-1.2-0.329-1.678c-0.217-0.479-0.533-0.849-0.949-1.113
		c-0.417-0.262-0.885-0.395-1.405-0.395c-0.74,0-1.373,0.253-1.905,0.762C79.05,21.834,78.784,22.681,78.784,23.865L78.784,23.865z
		 M86.54,27.685v-7.875h1.043v6.946h3.878v0.93H86.54L86.54,27.685z M92.386,23.849c0-1.307,0.349-2.33,1.052-3.069
		c0.703-0.74,1.608-1.109,2.719-1.109c0.726,0,1.383,0.174,1.966,0.521c0.583,0.349,1.027,0.833,1.334,1.455
		c0.308,0.621,0.461,1.326,0.461,2.112c0,0.799-0.161,1.514-0.483,2.143c-0.324,0.63-0.781,1.108-1.372,1.433
		c-0.592,0.324-1.228,0.486-1.911,0.486c-0.743,0-1.404-0.178-1.987-0.538c-0.586-0.357-1.027-0.847-1.329-1.467
		C92.534,25.197,92.386,24.541,92.386,23.849L92.386,23.849z M93.46,23.865c0,0.95,0.255,1.696,0.766,2.243
		c0.511,0.547,1.151,0.82,1.921,0.82c0.786,0,1.43-0.275,1.936-0.827c0.507-0.553,0.762-1.336,0.762-2.349
		c0-0.641-0.11-1.2-0.327-1.678s-0.533-0.849-0.95-1.113c-0.418-0.262-0.885-0.395-1.404-0.395c-0.739,0-1.375,0.253-1.905,0.762
		C93.725,21.834,93.46,22.681,93.46,23.865L93.46,23.865z M101.226,27.685v-7.875h1.569l1.864,5.575
		c0.171,0.52,0.298,0.908,0.375,1.166c0.09-0.286,0.229-0.708,0.42-1.264l1.885-5.479h1.403v7.876h-1.005v-6.591l-2.287,6.592h-0.94
		l-2.278-6.704v6.704H101.226L101.226,27.685z M110.382,27.685v-7.875h2.955c0.603,0,1.084,0.08,1.446,0.238
		c0.365,0.16,0.649,0.406,0.854,0.738c0.205,0.33,0.309,0.677,0.309,1.039c0,0.335-0.09,0.652-0.273,0.95
		c-0.183,0.297-0.46,0.537-0.827,0.721c0.477,0.14,0.842,0.378,1.098,0.713c0.256,0.337,0.385,0.735,0.385,1.194
		c0,0.368-0.079,0.711-0.234,1.027c-0.156,0.318-0.35,0.561-0.577,0.734c-0.229,0.172-0.517,0.3-0.862,0.388
		c-0.344,0.089-0.769,0.133-1.27,0.133L110.382,27.685L110.382,27.685z M111.425,23.12h1.703c0.46,0,0.791-0.032,0.993-0.092
		c0.265-0.079,0.465-0.208,0.598-0.393c0.135-0.183,0.202-0.413,0.202-0.687c0-0.261-0.063-0.492-0.188-0.69
		c-0.127-0.199-0.306-0.335-0.539-0.409c-0.23-0.073-0.633-0.109-1.198-0.109h-1.573v2.379H111.425z M111.425,26.755h1.96
		c0.336,0,0.574-0.012,0.709-0.037c0.24-0.044,0.441-0.116,0.603-0.217c0.161-0.099,0.294-0.245,0.398-0.436
		c0.103-0.192,0.156-0.413,0.156-0.663c0-0.294-0.076-0.549-0.227-0.767c-0.15-0.216-0.359-0.368-0.626-0.457
		c-0.267-0.087-0.651-0.129-1.151-0.129h-1.821L111.425,26.755L111.425,26.755z M117.941,27.685v-7.875h1.041v7.875H117.941
		L117.941,27.685z M119.955,27.685l3.025-7.875h1.122l3.223,7.875h-1.188l-0.919-2.385h-3.294l-0.862,2.385H119.955L119.955,27.685z
		 M122.226,24.45h2.672l-0.824-2.18c-0.249-0.662-0.434-1.207-0.557-1.634c-0.101,0.506-0.242,1.006-0.426,1.504L122.226,24.45
		L122.226,24.45z M128.146,27.685v-7.875h1.069l4.136,6.183v-6.183h1.001v7.875h-1.069l-4.137-6.189v6.189H128.146L128.146,27.685z
		 M135.237,27.685l3.024-7.875h1.124l3.224,7.875h-1.188l-0.919-2.385h-3.295l-0.863,2.385H135.237L135.237,27.685z M137.509,24.45
		h2.672l-0.822-2.18c-0.249-0.662-0.437-1.207-0.558-1.634c-0.101,0.506-0.242,1.006-0.426,1.504L137.509,24.45L137.509,24.45z
		 M69.075,41.532v-7.875h2.713c0.612,0,1.079,0.04,1.403,0.114c0.451,0.103,0.836,0.292,1.154,0.563
		c0.415,0.352,0.727,0.799,0.932,1.345c0.207,0.547,0.311,1.17,0.311,1.874c0,0.598-0.069,1.128-0.21,1.59
		c-0.14,0.461-0.317,0.845-0.538,1.146c-0.218,0.302-0.457,0.542-0.716,0.715c-0.259,0.174-0.572,0.304-0.939,0.395
		c-0.368,0.091-0.79,0.135-1.265,0.135H69.075L69.075,41.532z M70.117,40.602h1.681c0.519,0,0.929-0.048,1.223-0.145
		c0.296-0.098,0.53-0.232,0.707-0.41c0.247-0.243,0.439-0.578,0.577-0.995s0.207-0.921,0.207-1.518c0-0.822-0.135-1.454-0.403-1.897
		c-0.273-0.442-0.602-0.739-0.988-0.889c-0.279-0.107-0.729-0.161-1.348-0.161h-1.655V40.602L70.117,40.602z M77.043,41.532v-7.875
		h5.691v0.929h-4.65v2.412h4.356v0.924h-4.356v2.681h4.835v0.931H77.043L77.043,41.532z M88.11,41.532V32.66h1.174v8.872H88.11
		L88.11,41.532z M91.235,41.532v-7.875h1.069l4.136,6.183v-6.183h1v7.875h-1.069l-4.137-6.188v6.188H91.235L91.235,41.532z
		 M102.876,38.443v-0.921l3.336-0.009v2.923c-0.511,0.408-1.04,0.714-1.584,0.921c-0.544,0.206-1.104,0.309-1.677,0.309
		c-0.772,0-1.478-0.164-2.108-0.498c-0.633-0.33-1.109-0.811-1.432-1.435c-0.322-0.628-0.483-1.328-0.483-2.103
		c0-0.766,0.161-1.483,0.482-2.145c0.317-0.667,0.781-1.159,1.382-1.481c0.602-0.321,1.294-0.481,2.079-0.481
		c0.568,0,1.084,0.091,1.545,0.277c0.459,0.183,0.822,0.438,1.081,0.77c0.262,0.33,0.461,0.76,0.599,1.29l-0.941,0.258
		c-0.119-0.402-0.265-0.718-0.439-0.946c-0.176-0.229-0.428-0.413-0.753-0.551c-0.325-0.137-0.688-0.205-1.085-0.205
		c-0.477,0-0.889,0.072-1.235,0.218c-0.349,0.145-0.627,0.334-0.841,0.572c-0.214,0.236-0.378,0.495-0.497,0.779
		c-0.2,0.486-0.301,1.014-0.301,1.583c0,0.704,0.122,1.29,0.362,1.763c0.244,0.475,0.596,0.825,1.058,1.053
		c0.462,0.23,0.952,0.346,1.47,0.346c0.453,0,0.894-0.089,1.323-0.262c0.432-0.173,0.755-0.359,0.978-0.556v-1.467L102.876,38.443
		L102.876,38.443z M107.77,41.532v-7.875h5.692v0.929h-4.651v2.412h4.357v0.924h-4.357v2.681h4.837v0.931H107.77L107.77,41.532z
		 M115.075,41.532v-7.875h1.068l4.138,6.183v-6.183h0.999v7.875h-1.068l-4.138-6.188v6.188H115.075L115.075,41.532z M123.21,41.532
		v-7.875h1.042v7.875H123.21L123.21,41.532z M126.111,41.532v-7.875h5.693v0.929h-4.651v2.412h4.356v0.924h-4.356v2.681h4.834v0.931
		H126.111L126.111,41.532z M133.444,41.532v-7.875h3.491c0.701,0,1.234,0.072,1.601,0.214c0.365,0.14,0.657,0.39,0.876,0.747
		c0.22,0.359,0.327,0.756,0.327,1.189c0,0.559-0.18,1.028-0.542,1.411c-0.361,0.383-0.92,0.627-1.676,0.732
		c0.277,0.132,0.485,0.264,0.629,0.393c0.304,0.279,0.591,0.63,0.865,1.047l1.37,2.144h-1.311l-1.041-1.64
		c-0.305-0.471-0.556-0.835-0.754-1.084c-0.196-0.251-0.373-0.428-0.528-0.527c-0.157-0.099-0.314-0.167-0.475-0.209
		c-0.12-0.023-0.313-0.038-0.582-0.038h-1.207v3.498H133.444L133.444,41.532z M134.486,37.131h2.24c0.475,0,0.85-0.05,1.116-0.148
		c0.27-0.097,0.473-0.257,0.612-0.472c0.139-0.217,0.209-0.452,0.209-0.706c0-0.372-0.134-0.678-0.405-0.919
		c-0.27-0.238-0.697-0.359-1.282-0.359h-2.49V37.131L134.486,37.131z M141.551,41.532v-7.875h1.041v7.875H141.551L141.551,41.532z
		 M141.28,33.172l0.717-1.503h1.265l-1.18,1.503H141.28L141.28,33.172z M143.562,41.532l3.026-7.875h1.123l3.224,7.875h-1.189
		l-0.92-2.385h-3.292l-0.864,2.385H143.562L143.562,41.532z M145.836,38.297h2.671l-0.822-2.18
		c-0.249-0.662-0.437-1.206-0.559-1.634c-0.101,0.507-0.242,1.007-0.425,1.508L145.836,38.297L145.836,38.297z M68.585,52.858
		l1.058-0.144c0.028,0.679,0.157,1.143,0.381,1.395c0.227,0.249,0.54,0.372,0.939,0.372c0.295,0,0.548-0.065,0.762-0.202
		c0.215-0.133,0.361-0.318,0.443-0.549c0.08-0.234,0.122-0.603,0.122-1.111v-6.113h1.173v6.047c0,0.742-0.089,1.318-0.269,1.726
		c-0.179,0.407-0.464,0.717-0.852,0.932c-0.392,0.212-0.849,0.321-1.374,0.321c-0.778,0-1.373-0.226-1.788-0.673
		C68.765,54.411,68.567,53.745,68.585,52.858L68.585,52.858z M80.44,47.503h1.043v4.55c0,0.792-0.09,1.421-0.271,1.886
		c-0.18,0.467-0.504,0.843-0.97,1.135c-0.467,0.295-1.081,0.438-1.839,0.438c-0.737,0-1.342-0.126-1.81-0.382
		c-0.469-0.252-0.804-0.621-1.005-1.103c-0.202-0.483-0.301-1.141-0.301-1.975v-4.55h1.042v4.545c0,0.685,0.063,1.188,0.191,1.511
		c0.126,0.324,0.346,0.575,0.654,0.751c0.311,0.175,0.69,0.264,1.137,0.264c0.766,0,1.313-0.175,1.639-0.523
		c0.324-0.348,0.487-1.015,0.487-2.002V47.503L80.44,47.503z M83.174,55.379v-7.876h1.042v6.946h3.879v0.929L83.174,55.379
		L83.174,55.379z M89.515,55.379v-7.876h1.042v7.876H89.515L89.515,55.379z M92.076,51.542c0-1.309,0.35-2.331,1.052-3.069
		c0.704-0.738,1.608-1.108,2.72-1.108c0.726,0,1.382,0.173,1.965,0.52c0.582,0.35,1.028,0.832,1.335,1.454
		c0.305,0.621,0.458,1.326,0.458,2.111c0,0.801-0.159,1.515-0.481,2.144c-0.323,0.631-0.779,1.107-1.37,1.434
		c-0.593,0.323-1.229,0.485-1.913,0.485c-0.743,0-1.406-0.18-1.989-0.537c-0.583-0.359-1.025-0.849-1.327-1.467
		C92.226,52.889,92.076,52.232,92.076,51.542L92.076,51.542z M93.15,51.559c0,0.95,0.256,1.695,0.765,2.243
		c0.513,0.547,1.151,0.82,1.922,0.82c0.785,0,1.43-0.275,1.936-0.827c0.506-0.553,0.761-1.336,0.761-2.349
		c0-0.641-0.109-1.2-0.326-1.68c-0.217-0.478-0.534-0.848-0.95-1.111c-0.419-0.263-0.887-0.394-1.405-0.394
		c-0.74,0-1.374,0.253-1.905,0.76C93.417,49.528,93.15,50.375,93.15,51.559L93.15,51.559z M108.654,51.898V50.86l3.758-0.007v3.29
		c-0.577,0.461-1.17,0.805-1.785,1.039c-0.612,0.231-1.243,0.349-1.889,0.349c-0.872,0-1.665-0.188-2.376-0.563
		c-0.714-0.37-1.249-0.912-1.613-1.616c-0.363-0.708-0.545-1.496-0.545-2.37c0-0.862,0.183-1.668,0.543-2.415
		c0.358-0.751,0.881-1.305,1.557-1.669c0.679-0.361,1.458-0.544,2.344-0.544c0.64,0,1.221,0.104,1.739,0.312
		c0.518,0.208,0.924,0.497,1.219,0.868c0.295,0.373,0.519,0.855,0.674,1.451l-1.06,0.294c-0.135-0.453-0.3-0.81-0.497-1.066
		c-0.198-0.26-0.48-0.467-0.85-0.621c-0.365-0.153-0.774-0.231-1.221-0.231c-0.538,0-1.001,0.081-1.392,0.246
		c-0.393,0.161-0.707,0.377-0.948,0.644c-0.239,0.266-0.428,0.557-0.561,0.877c-0.227,0.549-0.338,1.144-0.338,1.785
		c0,0.791,0.136,1.452,0.407,1.985c0.274,0.534,0.671,0.929,1.191,1.186c0.521,0.26,1.071,0.388,1.655,0.388
		c0.511,0,1.006-0.099,1.49-0.293c0.485-0.195,0.853-0.406,1.1-0.626v-1.653H108.654L108.654,51.898z M113.171,55.379l3.024-7.876
		h1.122l3.225,7.876h-1.188l-0.919-2.384h-3.294l-0.862,2.384H113.171L113.171,55.379z M115.442,52.143h2.671l-0.822-2.179
		c-0.249-0.662-0.438-1.206-0.559-1.633c-0.102,0.505-0.241,1.006-0.424,1.504L115.442,52.143L115.442,52.143z M121.39,55.379
		v-7.876h3.491c0.703,0,1.235,0.071,1.602,0.212c0.365,0.142,0.656,0.391,0.876,0.748c0.218,0.358,0.327,0.755,0.327,1.188
		c0,0.561-0.179,1.028-0.542,1.411c-0.362,0.384-0.922,0.628-1.677,0.732c0.276,0.132,0.485,0.263,0.628,0.394
		c0.306,0.277,0.594,0.627,0.866,1.046l1.371,2.144h-1.312l-1.042-1.64c-0.304-0.472-0.555-0.833-0.752-1.084
		s-0.373-0.428-0.529-0.525c-0.156-0.103-0.313-0.171-0.474-0.212c-0.12-0.022-0.313-0.038-0.581-0.038h-1.21v3.498h-1.043V55.379z
		 M122.431,50.98h2.243c0.473,0,0.848-0.051,1.115-0.148c0.269-0.102,0.472-0.259,0.611-0.473c0.139-0.217,0.209-0.453,0.209-0.707
		c0-0.373-0.133-0.68-0.404-0.92c-0.269-0.239-0.696-0.358-1.281-0.358h-2.492L122.431,50.98L122.431,50.98z M128.453,55.379
		l3.025-7.876h1.123l3.224,7.876h-1.188l-0.92-2.384h-3.293l-0.863,2.384H128.453L128.453,55.379z M130.725,52.143h2.671
		l-0.822-2.179c-0.249-0.662-0.437-1.206-0.559-1.633c-0.1,0.505-0.241,1.006-0.426,1.504L130.725,52.143L130.725,52.143z
		 M138.09,55.379l-3.05-7.876h1.129l2.047,5.721c0.166,0.457,0.303,0.89,0.414,1.288c0.121-0.43,0.263-0.856,0.425-1.288
		l2.125-5.721h1.064l-3.083,7.876H138.09L138.09,55.379z M143.357,55.379v-7.876h1.042v7.876H143.357L143.357,55.379z
		 M148.24,55.379v-6.945h-2.595v-0.93h6.242v0.93h-2.605v6.945H148.24L148.24,55.379z M152.441,51.542
		c0-1.309,0.351-2.331,1.053-3.069s1.607-1.108,2.72-1.108c0.726,0,1.382,0.173,1.965,0.52c0.584,0.35,1.029,0.832,1.336,1.454
		c0.306,0.621,0.459,1.326,0.459,2.111c0,0.801-0.159,1.515-0.481,2.144c-0.324,0.631-0.781,1.107-1.371,1.434
		c-0.594,0.323-1.23,0.487-1.915,0.487c-0.742,0-1.403-0.18-1.987-0.538c-0.584-0.359-1.025-0.849-1.326-1.468
		C152.591,52.889,152.441,52.232,152.441,51.542L152.441,51.542z M153.515,51.559c0,0.95,0.255,1.695,0.764,2.243
		c0.514,0.547,1.152,0.82,1.923,0.82c0.785,0,1.431-0.275,1.937-0.827c0.505-0.553,0.761-1.336,0.761-2.349
		c0-0.641-0.111-1.2-0.328-1.68c-0.215-0.478-0.532-0.848-0.949-1.111c-0.417-0.263-0.887-0.394-1.404-0.394
		c-0.739,0-1.373,0.253-1.905,0.76C153.781,49.528,153.515,50.375,153.515,51.559L153.515,51.559z"/>
	
		<line fill="none" stroke="#E53323" stroke-width="0.6497" stroke-linecap="round" stroke-linejoin="round" stroke-miterlimit="22.9256" x1="27" y1="58.676" x2="58.127" y2="27.399"/>
	
		<polyline fill="none" stroke="#1D1D1B" stroke-width="0.6497" stroke-linecap="round" stroke-linejoin="round" stroke-miterlimit="22.9256" points="
		27,58.678 32.141,58.676 58.127,22.192 58.127,16.816 	"/>
	
		<path fill="none" stroke="#E53323" stroke-width="0.6497" stroke-linecap="round" stroke-linejoin="round" stroke-miterlimit="22.9256" d="
		M47.763,58.678l10.35-52.195 M37.496,58.505l20.631-41.689 M16.525,58.676l41.602-20.923 M6.149,58.596l51.978-10.348"/>
	
		<path fill="none" stroke="#1D1D1B" stroke-width="0.6497" stroke-linecap="round" stroke-linejoin="round" stroke-miterlimit="22.9256" d="
		M58.127,48.249v5.221L6.15,58.676h5.332l46.646-15.703v-5.22 M58.127,27.399v5.13L21.698,58.676h-5.173"/>
	
		<line fill="none" stroke="#1D1D1B" stroke-width="0.6497" stroke-linecap="round" stroke-linejoin="round" stroke-miterlimit="22.9256" x1="61.032" y1="53.525" x2="61.032" y2="1.066"/>
	
		<line fill="none" stroke="#1D1D1B" stroke-width="0.6497" stroke-linecap="round" stroke-linejoin="round" stroke-miterlimit="22.9256" x1="63.886" y1="61.066" x2="0.765" y2="61.066"/>
	
		<polyline fill="none" stroke="#1D1D1B" stroke-width="0.6497" stroke-linecap="round" stroke-linejoin="round" stroke-miterlimit="22.9256" points="
		47.763,58.676 53.003,58.676 58.127,6.403 58.127,11.793 42.675,58.676 37.484,58.678 	"/>
</g>
</svg>
