<?xml version="1.0" encoding="utf-8"?>
<!-- Generator: Adobe Illustrator 21.1.0, SVG Export Plug-In . SVG Version: 6.00 Build 0)  -->
<svg version="1.1" id="Capa_1" xmlns="http://www.w3.org/2000/svg" xmlns:xlink="http://www.w3.org/1999/xlink" x="0px" y="0px"
	 viewBox="0 0 20 20" style="enable-background:new 0 0 20 20;" xml:space="preserve">
<style type="text/css">
	.st0{fill:#990000;}
</style>
<g>
	<path class="st0" d="M8.3,0H7.1L6.4,2.9L5.6,0H4.4c0.2,0.7,0.5,1.4,0.7,2.1c0.4,1,0.6,1.8,0.7,2.4v3h1.1v-3L8.3,0z M11.3,5.7v-2
		c0-0.6-0.1-1-0.3-1.3C10.7,2,10.3,1.8,9.8,1.8C9.3,1.8,8.9,2,8.6,2.4C8.4,2.7,8.3,3.1,8.3,3.7v2c0,0.6,0.1,1,0.3,1.3
		c0.3,0.4,0.7,0.6,1.2,0.6c0.5,0,0.9-0.2,1.2-0.6C11.2,6.7,11.3,6.3,11.3,5.7z M10.3,5.9c0,0.5-0.2,0.8-0.5,0.8
		c-0.3,0-0.5-0.3-0.5-0.8V3.5c0-0.5,0.2-0.8,0.5-0.8c0.3,0,0.5,0.3,0.5,0.8V5.9z M15,7.5V1.9h-1v4.3c-0.2,0.3-0.4,0.5-0.6,0.5
		c-0.1,0-0.2-0.1-0.2-0.2c0,0,0-0.2,0-0.4V1.9h-1v4.4c0,0.4,0,0.7,0.1,0.8c0.1,0.3,0.3,0.4,0.6,0.4c0.4,0,0.8-0.2,1.2-0.7v0.6H15
		L15,7.5z"/>
	<g>
		<path class="st0" d="M15.5,13.1c-0.3,0-0.5,0.3-0.5,0.8v0.5h1v-0.5C16,13.4,15.9,13.1,15.5,13.1z"/>
		<path class="st0" d="M11.8,13.1c-0.2,0-0.3,0.1-0.5,0.2v3.4c0.2,0.2,0.3,0.2,0.5,0.2c0.3,0,0.4-0.2,0.4-0.7v-2.4
			C12.3,13.4,12.1,13.1,11.8,13.1z"/>
		<path class="st0" d="M18,10.3c-0.2-0.9-0.9-1.5-1.8-1.6c-2.1-0.2-4.1-0.2-6.2-0.2c-2.1,0-4.1,0-6.2,0.2C2.9,8.8,2.2,9.5,2,10.3
			c-0.3,1.3-0.3,2.6-0.3,3.9c0,1.3,0,2.7,0.3,3.9c0.2,0.9,0.9,1.5,1.8,1.6C5.9,20,7.9,20,10,20c2.1,0,4.1,0,6.2-0.2
			c0.9-0.1,1.6-0.7,1.8-1.6c0.3-1.3,0.3-2.6,0.3-3.9S18.3,11.6,18,10.3z M6.4,11.5L6.4,11.5l-1.2,0v6.4H4.1v-6.4H3v-1h3.5V11.5z
			 M9.5,17.8h-1v-0.6c-0.4,0.5-0.8,0.7-1.1,0.7c-0.3,0-0.5-0.1-0.6-0.4c-0.1-0.2-0.1-0.4-0.1-0.8v-4.4h1v4.1c0,0.2,0,0.4,0,0.4
			c0,0.2,0.1,0.2,0.2,0.2c0.2,0,0.4-0.2,0.6-0.5v-4.2h1L9.5,17.8L9.5,17.8z M13.3,16.2c0,0.5,0,0.9-0.1,1.1
			c-0.1,0.4-0.4,0.6-0.8,0.6c-0.4,0-0.7-0.2-1-0.6v0.5h-1v-7.4h1v2.4c0.3-0.4,0.7-0.6,1-0.6c0.4,0,0.7,0.2,0.8,0.6
			c0.1,0.2,0.1,0.6,0.1,1.1V16.2z M17,15.2h-2v1c0,0.5,0.2,0.8,0.5,0.8c0.2,0,0.4-0.1,0.4-0.4c0-0.1,0-0.3,0-0.7h1v0.1
			c0,0.3,0,0.5,0,0.6c0,0.2-0.1,0.4-0.2,0.6c-0.3,0.4-0.7,0.6-1.2,0.6c-0.5,0-0.9-0.2-1.2-0.6C14.1,17,14,16.6,14,16v-1.9
			c0-0.6,0.1-1,0.3-1.3c0.3-0.4,0.7-0.6,1.2-0.6c0.5,0,0.9,0.2,1.2,0.6c0.2,0.3,0.3,0.7,0.3,1.3L17,15.2L17,15.2z"/>
	</g>
</g>
</svg>
