<?xml version="1.0" encoding="utf-8"?>
<!-- Generator: Adobe Illustrator 21.1.0, SVG Export Plug-In . SVG Version: 6.00 Build 0)  -->
<svg version="1.1" id="Capa_1" xmlns="http://www.w3.org/2000/svg" xmlns:xlink="http://www.w3.org/1999/xlink" x="0px" y="0px"
	 viewBox="0 0 20 20" style="enable-background:new 0 0 20 20;" xml:space="preserve">
<style type="text/css">
	.st0{fill:#990000;}
</style>
<path class="st0" d="M18.5,0h-17C0.7,0,0,0.7,0,1.5v17C0,19.3,0.7,20,1.5,20h17c0.8,0,1.5-0.6,1.5-1.4v-17C20,0.7,19.3,0,18.5,0z
	 M5.9,17H3V7.5h3V17z M4.4,6.2c-1,0-1.7-0.8-1.7-1.7c0-0.9,0.8-1.7,1.7-1.7c0.9,0,1.7,0.8,1.7,1.7C6.2,5.4,5.4,6.2,4.4,6.2z M17,17
	h-3v-4.6c0-1.1,0-2.5-1.5-2.5c-1.5,0-1.8,1.2-1.8,2.4V17h-3V7.5h2.8v1.3h0c0.4-0.7,1.4-1.5,2.8-1.5c3,0,3.6,2,3.6,4.5L17,17L17,17z"
	/>
</svg>
