<?xml version="1.0" encoding="utf-8"?>
<!-- Generator: Adobe Illustrator 16.0.0, SVG Export Plug-In . SVG Version: 6.00 Build 0)  -->
<!DOCTYPE svg PUBLIC "-//W3C//DTD SVG 1.1//EN" "http://www.w3.org/Graphics/SVG/1.1/DTD/svg11.dtd">
<svg version="1.1" id="Capa_1" xmlns="http://www.w3.org/2000/svg" xmlns:xlink="http://www.w3.org/1999/xlink" x="0px" y="0px"
	 width="20px" height="20px" viewBox="0 0 20 20" enable-background="new 0 0 20 20" xml:space="preserve">
<path fill="#FFFFFF" d="M2.568,0.001h14.863C18.844,0.001,20,1.157,20,2.568v14.865c0,1.413-1.156,2.566-2.568,2.566H2.568
	C1.155,19.999,0,18.846,0,17.433V2.568C0,1.157,1.155,0.001,2.568,0.001z M14.568,2.222c-0.496,0-0.898,0.406-0.898,0.903v2.153
	c0,0.496,0.404,0.899,0.898,0.899h2.262c0.494,0,0.896-0.404,0.896-0.899V3.125c0-0.498-0.404-0.903-0.896-0.903H14.568z
	 M17.738,8.457h-1.762c0.17,0.547,0.258,1.119,0.258,1.719c0,3.326-2.783,6.022-6.214,6.022c-3.433,0-6.218-2.697-6.218-6.023
	c0-0.6,0.089-1.171,0.257-1.719H2.223v8.449c0,0.438,0.356,0.795,0.794,0.795h13.926c0.438,0,0.793-0.357,0.793-0.795L17.738,8.457
	L17.738,8.457z M10.02,6.065c-2.218,0-4.016,1.742-4.016,3.891c0,2.148,1.798,3.891,4.016,3.891c2.217,0,4.014-1.742,4.014-3.891
	C14.035,7.808,12.236,6.065,10.02,6.065z"/>
</svg>
