<?xml version="1.0" encoding="utf-8"?>
<!-- Generator: Adobe Illustrator 16.0.0, SVG Export Plug-In . SVG Version: 6.00 Build 0)  -->
<!DOCTYPE svg PUBLIC "-//W3C//DTD SVG 1.1//EN" "http://www.w3.org/Graphics/SVG/1.1/DTD/svg11.dtd">
<svg version="1.1" id="Capa_1" xmlns="http://www.w3.org/2000/svg" xmlns:xlink="http://www.w3.org/1999/xlink" x="0px" y="0px"
	 width="192px" height="72px" viewBox="-112.821 59.298 192 72" enable-background="new -112.821 59.298 192 72"
	 xml:space="preserve">
<g>
	<path fill="#1D1D1B" d="M-29.893,75.124V64.73h7.51v1.229h-6.137v3.182h5.75v1.221h-5.75v3.537h6.379v1.227H-29.893L-29.893,75.124
		z M-20.78,72.159l1.151-0.102c0.053,0.461,0.18,0.84,0.379,1.137s0.51,0.535,0.928,0.717c0.42,0.184,0.892,0.273,1.415,0.273
		c0.466,0,0.876-0.07,1.232-0.207c0.355-0.139,0.625-0.328,0.798-0.57c0.171-0.242,0.261-0.506,0.261-0.789
		c0-0.291-0.083-0.543-0.254-0.76c-0.168-0.215-0.443-0.396-0.828-0.543c-0.249-0.098-0.795-0.246-1.643-0.449
		c-0.848-0.207-1.441-0.398-1.781-0.578c-0.44-0.229-0.769-0.518-0.985-0.857c-0.213-0.34-0.321-0.723-0.321-1.146
		c0-0.465,0.13-0.9,0.395-1.305c0.263-0.404,0.65-0.711,1.157-0.924c0.509-0.207,1.072-0.313,1.692-0.313
		c0.684,0,1.285,0.109,1.81,0.328c0.522,0.221,0.922,0.545,1.205,0.973c0.279,0.428,0.43,0.912,0.453,1.453l-1.171,0.088
		c-0.064-0.582-0.276-1.023-0.639-1.32c-0.365-0.297-0.897-0.445-1.607-0.445c-0.738,0-1.276,0.133-1.613,0.406
		c-0.338,0.27-0.508,0.596-0.508,0.977c0,0.334,0.12,0.605,0.358,0.818c0.236,0.213,0.848,0.434,1.84,0.656
		c0.992,0.225,1.673,0.42,2.043,0.588c0.538,0.25,0.933,0.564,1.189,0.943c0.255,0.379,0.384,0.814,0.384,1.313
		c0,0.49-0.142,0.953-0.422,1.387c-0.28,0.434-0.684,0.771-1.211,1.014c-0.524,0.24-1.119,0.359-1.774,0.359
		c-0.835,0-1.536-0.119-2.099-0.363s-1.005-0.609-1.33-1.098C-20.595,73.329-20.765,72.775-20.78,72.159L-20.78,72.159z
		 M-5.192,71.89l1.222,0.309c-0.254,0.998-0.716,1.766-1.382,2.293s-1.477,0.787-2.438,0.787c-0.997,0-1.802-0.203-2.425-0.605
		c-0.622-0.408-1.098-0.992-1.42-1.758c-0.325-0.77-0.489-1.594-0.489-2.475c0-0.961,0.183-1.797,0.551-2.514
		c0.366-0.715,0.889-1.258,1.568-1.629c0.677-0.371,1.42-0.555,2.236-0.555c0.921,0,1.697,0.232,2.329,0.703
		c0.629,0.471,1.068,1.129,1.313,1.982l-1.198,0.283c-0.217-0.672-0.525-1.16-0.933-1.467c-0.408-0.307-0.917-0.459-1.535-0.459
		c-0.708,0-1.299,0.172-1.776,0.508c-0.477,0.342-0.811,0.797-1.002,1.369c-0.192,0.57-0.288,1.162-0.288,1.771
		c0,0.787,0.114,1.469,0.341,2.055c0.229,0.586,0.585,1.023,1.067,1.313c0.483,0.291,1.006,0.436,1.567,0.436
		c0.684,0,1.263-0.199,1.735-0.592C-5.679,73.249-5.359,72.663-5.192,71.89L-5.192,71.89z M3.584,65.9h1.222v5.328
		c0,0.926-0.106,1.662-0.317,2.209c-0.212,0.545-0.591,0.988-1.136,1.33c-0.547,0.342-1.264,0.512-2.155,0.512
		c-0.863,0-1.571-0.148-2.118-0.447c-0.551-0.295-0.943-0.727-1.178-1.293c-0.236-0.563-0.35-1.334-0.35-2.311V65.9h1.218v5.322
		c0,0.801,0.074,1.391,0.224,1.77c0.148,0.381,0.407,0.672,0.768,0.879c0.361,0.205,0.805,0.311,1.329,0.311
		c0.9,0,1.54-0.205,1.921-0.613c0.38-0.404,0.571-1.186,0.571-2.344V65.9L3.584,65.9z M6.863,75.124V65.9h6.668v1.088H8.084v2.824
		h5.103v1.082H8.084v3.141h5.663v1.09H6.863L6.863,75.124z M15.381,75.124V65.9h1.222v8.135h4.542v1.09H15.381L15.381,75.124z
		 M21.584,75.124l3.544-9.225h1.312l3.777,9.225h-1.394l-1.075-2.795h-3.856l-1.011,2.795H21.584L21.584,75.124z M24.245,71.333
		h3.129l-0.965-2.553c-0.291-0.773-0.509-1.41-0.652-1.91c-0.119,0.592-0.282,1.178-0.498,1.762L24.245,71.333L24.245,71.333z
		 M-22.509,87.695l1.377,0.35c-0.288,1.127-0.807,1.988-1.556,2.584c-0.752,0.592-1.665,0.887-2.749,0.887
		c-1.119,0-2.029-0.227-2.73-0.682c-0.702-0.457-1.235-1.119-1.603-1.98c-0.365-0.867-0.551-1.797-0.551-2.787
		c0-1.082,0.207-2.025,0.62-2.83c0.416-0.807,1.004-1.42,1.768-1.838c0.763-0.418,1.602-0.625,2.52-0.625
		c1.039,0,1.913,0.264,2.621,0.793c0.709,0.529,1.203,1.271,1.48,2.232l-1.352,0.318c-0.242-0.756-0.59-1.307-1.05-1.652
		c-0.457-0.348-1.033-0.518-1.73-0.518c-0.798,0-1.464,0.191-2,0.572c-0.537,0.385-0.915,0.896-1.131,1.545
		c-0.217,0.641-0.327,1.307-0.327,1.994c0,0.885,0.128,1.652,0.386,2.314c0.259,0.658,0.659,1.152,1.202,1.479
		c0.546,0.326,1.134,0.488,1.768,0.488c0.769,0,1.42-0.223,1.954-0.666C-23.058,89.228-22.699,88.57-22.509,87.695L-22.509,87.695z
		 M-19.937,86.847c0-1.531,0.411-2.729,1.234-3.596c0.821-0.865,1.884-1.297,3.184-1.297c0.851,0,1.619,0.203,2.301,0.609
		c0.684,0.408,1.204,0.975,1.564,1.703c0.359,0.729,0.538,1.553,0.538,2.475c0,0.936-0.188,1.773-0.565,2.51
		c-0.377,0.736-0.915,1.297-1.605,1.678c-0.693,0.379-1.439,0.568-2.24,0.568c-0.869,0-1.646-0.207-2.327-0.629
		c-0.684-0.418-1.201-0.992-1.554-1.719C-19.761,88.425-19.937,87.657-19.937,86.847L-19.937,86.847z M-18.678,86.865
		c0,1.113,0.297,1.986,0.896,2.627c0.6,0.641,1.348,0.961,2.251,0.961c0.917,0,1.674-0.322,2.267-0.969
		c0.593-0.646,0.892-1.564,0.892-2.75c0-0.752-0.129-1.406-0.386-1.967c-0.254-0.561-0.624-0.994-1.111-1.303
		c-0.488-0.307-1.037-0.463-1.646-0.463c-0.867,0-1.608,0.297-2.231,0.893C-18.367,84.486-18.678,85.478-18.678,86.865
		L-18.678,86.865z M-9.595,91.339v-9.223h1.222v8.135h4.542v1.088H-9.595L-9.595,91.339z M-2.749,86.847
		c0-1.531,0.41-2.729,1.233-3.596c0.824-0.865,1.883-1.297,3.185-1.297c0.851,0,1.619,0.203,2.303,0.609
		c0.682,0.408,1.202,0.975,1.563,1.703s0.54,1.553,0.54,2.475c0,0.936-0.19,1.773-0.566,2.51c-0.379,0.736-0.914,1.297-1.607,1.678
		c-0.693,0.379-1.438,0.568-2.238,0.568c-0.871,0-1.644-0.207-2.328-0.629c-0.686-0.418-1.203-0.992-1.555-1.719
		C-2.575,88.425-2.749,87.657-2.749,86.847L-2.749,86.847z M-1.491,86.865c0,1.113,0.299,1.986,0.898,2.627
		c0.598,0.641,1.348,0.961,2.25,0.961c0.921,0,1.674-0.322,2.267-0.969c0.594-0.646,0.892-1.564,0.892-2.75
		c0-0.752-0.128-1.406-0.382-1.967c-0.254-0.559-0.625-0.994-1.113-1.303c-0.489-0.307-1.036-0.463-1.644-0.463
		c-0.867,0-1.61,0.297-2.232,0.893C-1.18,84.486-1.491,85.478-1.491,86.865L-1.491,86.865z M7.605,91.339v-9.223h1.838l2.183,6.529
		c0.201,0.607,0.35,1.063,0.438,1.365c0.105-0.336,0.268-0.83,0.492-1.48l2.207-6.416h1.645v9.223H15.23v-7.719l-2.679,7.721h-1.1
		l-2.668-7.852v7.852H7.605L7.605,91.339z M18.327,91.339v-9.223h3.461c0.707,0,1.269,0.094,1.695,0.279
		c0.427,0.188,0.759,0.475,1,0.863c0.24,0.387,0.362,0.793,0.362,1.217c0,0.393-0.105,0.764-0.321,1.111
		c-0.212,0.35-0.538,0.629-0.967,0.846c0.558,0.164,0.985,0.443,1.285,0.836c0.3,0.395,0.451,0.859,0.451,1.396
		c0,0.432-0.092,0.834-0.275,1.203c-0.182,0.373-0.409,0.658-0.675,0.861c-0.268,0.201-0.606,0.352-1.009,0.453
		c-0.404,0.104-0.901,0.156-1.489,0.156H18.327L18.327,91.339z M19.548,85.993h1.995c0.54,0,0.926-0.037,1.165-0.109
		c0.309-0.092,0.544-0.244,0.7-0.459c0.158-0.215,0.236-0.484,0.236-0.805c0-0.307-0.073-0.576-0.22-0.809
		c-0.148-0.232-0.359-0.393-0.631-0.479c-0.27-0.086-0.741-0.129-1.402-0.129h-1.844v2.787h0.002V85.993z M19.548,90.249h2.297
		c0.394,0,0.672-0.014,0.83-0.043c0.281-0.051,0.517-0.137,0.707-0.254c0.188-0.117,0.343-0.287,0.464-0.512
		c0.121-0.223,0.183-0.482,0.183-0.775c0-0.346-0.089-0.643-0.266-0.898c-0.176-0.254-0.421-0.432-0.733-0.535
		c-0.313-0.102-0.763-0.15-1.349-0.15h-2.132L19.548,90.249L19.548,90.249z M27.18,91.339v-9.223h1.219v9.223H27.18L27.18,91.339z
		 M29.54,91.339l3.543-9.223h1.313l3.774,9.223h-1.391l-1.077-2.793h-3.856l-1.01,2.793H29.54L29.54,91.339z M32.199,87.55h3.129
		l-0.964-2.553c-0.292-0.775-0.509-1.414-0.652-1.914c-0.118,0.592-0.284,1.178-0.5,1.762L32.199,87.55L32.199,87.55z
		 M39.132,91.339v-9.223h1.252l4.844,7.242v-7.242H46.4v9.223h-1.251l-4.846-7.248v7.248H39.132L39.132,91.339z M47.436,91.339
		l3.541-9.223h1.317l3.775,9.223h-1.392l-1.075-2.793h-3.859l-1.011,2.793H47.436L47.436,91.339z M50.097,87.55h3.13l-0.963-2.553
		c-0.292-0.775-0.511-1.414-0.653-1.914c-0.119,0.592-0.284,1.178-0.499,1.762L50.097,87.55L50.097,87.55z M-30.048,107.554v-9.221
		h3.177c0.717,0,1.264,0.047,1.643,0.133c0.528,0.121,0.979,0.342,1.351,0.66c0.486,0.412,0.852,0.936,1.092,1.574
		c0.243,0.641,0.364,1.371,0.364,2.195c0,0.699-0.081,1.32-0.246,1.861c-0.164,0.541-0.371,0.99-0.63,1.344
		c-0.255,0.354-0.536,0.635-0.838,0.836c-0.303,0.205-0.67,0.355-1.1,0.463c-0.431,0.105-0.925,0.158-1.482,0.158h-3.332V107.554z
		 M-28.828,106.466h1.968c0.608,0,1.088-0.057,1.433-0.17c0.347-0.115,0.62-0.271,0.828-0.48c0.289-0.283,0.514-0.676,0.676-1.164
		c0.161-0.488,0.242-1.078,0.242-1.777c0-0.963-0.158-1.703-0.472-2.223c-0.32-0.518-0.705-0.865-1.157-1.041
		c-0.327-0.125-0.854-0.188-1.579-0.188h-1.938L-28.828,106.466L-28.828,106.466z M-20.717,107.554v-9.221h6.666v1.088h-5.446v2.826
		h5.102v1.08h-5.102v3.141h5.662v1.09h-6.882V107.554z M-7.756,107.554V97.165h1.375v10.389H-7.756L-7.756,107.554z M-4.096,107.554
		v-9.221h1.251L2,105.573v-7.24h1.171v9.221H1.919l-4.846-7.246v7.246H-4.096L-4.096,107.554z M9.537,103.937v-1.078l3.907-0.01
		v3.424c-0.598,0.477-1.217,0.836-1.855,1.078c-0.636,0.24-1.292,0.361-1.962,0.361c-0.906,0-1.731-0.191-2.47-0.582
		c-0.741-0.387-1.298-0.951-1.677-1.682c-0.377-0.734-0.565-1.555-0.565-2.463c0-0.896,0.188-1.736,0.565-2.512
		c0.371-0.781,0.914-1.357,1.617-1.734c0.705-0.377,1.517-0.564,2.436-0.564c0.665,0,1.27,0.107,1.81,0.326
		c0.538,0.213,0.963,0.512,1.265,0.9c0.306,0.387,0.54,0.891,0.702,1.512l-1.103,0.303c-0.139-0.473-0.31-0.842-0.514-1.109
		c-0.206-0.268-0.501-0.482-0.881-0.645c-0.381-0.162-0.806-0.24-1.271-0.24c-0.558,0-1.041,0.084-1.446,0.256
		c-0.41,0.168-0.734,0.391-0.986,0.67c-0.25,0.275-0.441,0.58-0.581,0.91c-0.234,0.57-0.353,1.189-0.353,1.855
		c0,0.824,0.142,1.51,0.423,2.064c0.286,0.557,0.698,0.965,1.24,1.232c0.54,0.27,1.115,0.406,1.721,0.406
		c0.53,0,1.047-0.104,1.55-0.307c0.506-0.203,0.883-0.422,1.145-0.65v-1.719L9.537,103.937L9.537,103.937z M15.269,107.554v-9.221
		h6.666v1.088h-5.447v2.826h5.104v1.08h-5.104v3.141h5.665v1.09h-6.884V107.554z M23.824,107.554v-9.221h1.251l4.847,7.24v-7.24
		h1.168v9.221h-1.251l-4.845-7.246v7.246H23.824L23.824,107.554z M33.351,107.554v-9.221h1.221v9.221H33.351L33.351,107.554z
		 M36.749,107.554v-9.221h6.666v1.088h-5.446v2.826h5.101v1.08h-5.101v3.141h5.662v1.09h-6.882V107.554z M45.336,107.554v-9.221
		h4.089c0.819,0,1.444,0.084,1.875,0.25c0.427,0.164,0.769,0.457,1.027,0.875c0.256,0.42,0.381,0.887,0.381,1.393
		c0,0.656-0.21,1.205-0.633,1.652c-0.424,0.449-1.079,0.734-1.964,0.857c0.324,0.154,0.568,0.309,0.736,0.461
		c0.355,0.326,0.692,0.736,1.013,1.227l1.605,2.51h-1.535l-1.219-1.92c-0.358-0.553-0.652-0.979-0.883-1.27
		c-0.231-0.295-0.437-0.502-0.62-0.617c-0.184-0.117-0.368-0.195-0.557-0.246c-0.139-0.025-0.365-0.043-0.681-0.043h-1.414v4.096
		h-1.222V107.554z M46.557,102.402h2.624c0.557,0,0.996-0.059,1.307-0.174c0.315-0.113,0.553-0.301,0.716-0.553
		c0.162-0.254,0.245-0.529,0.245-0.826c0-0.436-0.156-0.793-0.474-1.076c-0.316-0.279-0.817-0.422-1.502-0.422h-2.916V102.402
		L46.557,102.402z M54.832,107.554v-9.221h1.219v9.221H54.832L54.832,107.554z M54.514,97.765l0.839-1.76h1.482l-1.381,1.76H54.514
		L54.514,97.765z M57.186,107.554l3.545-9.221h1.315l3.775,9.221h-1.392l-1.077-2.791h-3.856l-1.011,2.791H57.186L57.186,107.554z
		 M59.85,103.767h3.127l-0.962-2.553c-0.292-0.775-0.512-1.412-0.655-1.914c-0.118,0.594-0.284,1.18-0.497,1.768L59.85,103.767
		L59.85,103.767z M-30.622,120.82l1.239-0.168c0.033,0.795,0.184,1.338,0.446,1.633c0.266,0.291,0.632,0.436,1.1,0.436
		c0.345,0,0.642-0.074,0.893-0.236c0.252-0.156,0.423-0.371,0.519-0.643c0.094-0.273,0.143-0.705,0.143-1.301v-7.158h1.374v7.08
		c0,0.869-0.104,1.545-0.315,2.021c-0.209,0.477-0.543,0.84-0.998,1.092c-0.459,0.248-0.994,0.375-1.609,0.375
		c-0.911,0-1.608-0.264-2.094-0.787C-30.412,122.64-30.644,121.859-30.622,120.82L-30.622,120.82z M-16.738,114.548h1.221v5.33
		c0,0.926-0.105,1.664-0.318,2.207c-0.209,0.547-0.589,0.988-1.135,1.33c-0.547,0.346-1.266,0.514-2.154,0.514
		c-0.863,0-1.571-0.148-2.119-0.447c-0.549-0.297-0.942-0.729-1.177-1.293c-0.237-0.564-0.352-1.336-0.352-2.313v-5.328h1.22v5.322
		c0,0.801,0.074,1.391,0.224,1.77c0.148,0.379,0.405,0.674,0.766,0.879c0.365,0.205,0.809,0.309,1.332,0.309
		c0.897,0,1.538-0.205,1.92-0.611c0.379-0.408,0.57-1.188,0.57-2.346v-5.322H-16.738z M-13.536,123.773v-9.225h1.219v8.135h4.543
		v1.088L-13.536,123.773L-13.536,123.773z M-6.11,123.773v-9.225h1.221v9.225H-6.11L-6.11,123.773z M-3.11,119.279
		c0-1.533,0.41-2.73,1.231-3.594c0.825-0.865,1.884-1.299,3.186-1.299c0.851,0,1.619,0.205,2.301,0.609
		c0.682,0.41,1.203,0.975,1.563,1.703c0.358,0.729,0.536,1.553,0.536,2.473c0,0.938-0.186,1.773-0.563,2.51
		c-0.38,0.74-0.913,1.297-1.606,1.68c-0.693,0.379-1.439,0.568-2.239,0.568c-0.871,0-1.647-0.211-2.33-0.629
		c-0.683-0.42-1.2-0.994-1.554-1.719C-2.935,120.857-3.11,120.087-3.11,119.279L-3.11,119.279z M-1.853,119.298
		c0,1.113,0.301,1.986,0.896,2.627c0.601,0.641,1.348,0.961,2.25,0.961c0.919,0,1.675-0.322,2.268-0.969
		c0.594-0.646,0.891-1.564,0.891-2.752c0-0.75-0.128-1.404-0.382-1.967c-0.254-0.559-0.624-0.992-1.111-1.301
		c-0.492-0.309-1.039-0.461-1.646-0.461c-0.866,0-1.609,0.295-2.231,0.889C-1.542,116.919-1.853,117.913-1.853,119.298
		L-1.853,119.298z M16.305,119.695v-1.215l4.401-0.008v3.854c-0.677,0.539-1.37,0.941-2.091,1.217
		c-0.717,0.27-1.457,0.408-2.212,0.408c-1.022,0-1.951-0.221-2.784-0.658c-0.836-0.434-1.461-1.07-1.89-1.895
		c-0.425-0.828-0.638-1.752-0.638-2.775c0-1.008,0.215-1.953,0.636-2.828c0.42-0.879,1.032-1.527,1.823-1.955
		c0.796-0.422,1.708-0.637,2.746-0.637c0.75,0,1.431,0.123,2.037,0.367c0.606,0.242,1.082,0.58,1.428,1.016s0.608,1,0.789,1.699
		l-1.242,0.344c-0.157-0.529-0.35-0.949-0.581-1.248c-0.232-0.305-0.563-0.547-0.995-0.729c-0.428-0.178-0.907-0.27-1.431-0.27
		c-0.63,0-1.172,0.094-1.629,0.289c-0.46,0.188-0.829,0.441-1.111,0.754c-0.28,0.311-0.501,0.652-0.657,1.027
		c-0.266,0.643-0.396,1.338-0.396,2.09c0,0.926,0.16,1.699,0.478,2.324c0.32,0.625,0.785,1.088,1.393,1.391
		c0.611,0.303,1.256,0.453,1.94,0.453c0.597,0,1.178-0.115,1.745-0.344s0.997-0.475,1.288-0.732v-1.936h-3.046V119.695z
		 M21.593,123.773l3.542-9.225h1.314l3.776,9.225h-1.391l-1.076-2.791h-3.858l-1.009,2.791H21.593L21.593,123.773z M24.253,119.982
		h3.129l-0.963-2.551c-0.293-0.775-0.513-1.412-0.656-1.912c-0.12,0.592-0.282,1.178-0.496,1.762L24.253,119.982L24.253,119.982z
		 M31.22,123.773v-9.225h4.089c0.824,0,1.446,0.084,1.875,0.248c0.428,0.166,0.769,0.459,1.026,0.877
		c0.255,0.418,0.383,0.885,0.383,1.391c0,0.658-0.21,1.205-0.635,1.652c-0.424,0.449-1.08,0.736-1.964,0.857
		c0.322,0.154,0.567,0.309,0.734,0.461c0.359,0.326,0.696,0.734,1.016,1.225l1.606,2.512h-1.538l-1.22-1.92
		c-0.356-0.553-0.651-0.977-0.881-1.27c-0.23-0.295-0.437-0.502-0.619-0.615c-0.183-0.121-0.368-0.199-0.556-0.248
		c-0.14-0.025-0.366-0.045-0.68-0.045H32.44v4.098h-1.222L31.22,123.773L31.22,123.773z M32.439,118.62h2.627
		c0.554,0,0.993-0.059,1.306-0.174c0.314-0.119,0.551-0.303,0.715-0.553c0.163-0.254,0.245-0.531,0.245-0.828
		c0-0.438-0.156-0.797-0.473-1.078c-0.316-0.279-0.816-0.418-1.5-0.418H32.44L32.439,118.62L32.439,118.62z M39.492,123.773
		l3.542-9.225h1.315l3.775,9.225h-1.391l-1.077-2.791H41.8l-1.011,2.791H39.492L39.492,123.773z M42.153,119.982h3.128l-0.962-2.551
		c-0.292-0.775-0.512-1.412-0.655-1.912c-0.118,0.592-0.283,1.178-0.5,1.762L42.153,119.982L42.153,119.982z M50.779,123.773
		l-3.573-9.225h1.322l2.397,6.699c0.195,0.537,0.356,1.043,0.485,1.51c0.142-0.504,0.309-1.004,0.499-1.51l2.489-6.699h1.247
		l-3.612,9.225H50.779L50.779,123.773z M56.946,123.773v-9.225h1.22v9.225H56.946L56.946,123.773z M62.666,123.773v-8.135h-3.039
		v-1.088h7.31v1.088h-3.051v8.135H62.666L62.666,123.773z M67.584,119.279c0-1.533,0.411-2.73,1.234-3.594
		c0.821-0.865,1.881-1.299,3.184-1.299c0.851,0,1.62,0.205,2.301,0.609c0.684,0.41,1.206,0.975,1.565,1.703
		c0.359,0.729,0.538,1.553,0.538,2.473c0,0.938-0.186,1.773-0.563,2.51c-0.38,0.74-0.916,1.297-1.606,1.68
		c-0.695,0.379-1.44,0.57-2.242,0.57c-0.869,0-1.645-0.209-2.328-0.629s-1.2-0.994-1.552-1.721
		C67.76,120.857,67.584,120.087,67.584,119.279L67.584,119.279z M68.842,119.298c0,1.113,0.299,1.986,0.896,2.627
		c0.602,0.641,1.349,0.961,2.25,0.961c0.92,0,1.677-0.322,2.27-0.969c0.591-0.646,0.891-1.564,0.891-2.752
		c0-0.75-0.129-1.404-0.383-1.967c-0.253-0.559-0.625-0.992-1.112-1.301c-0.489-0.309-1.039-0.461-1.644-0.461
		c-0.866,0-1.608,0.295-2.231,0.889C69.155,116.919,68.842,117.913,68.842,119.298L68.842,119.298z"/>
	
		<line fill="none" stroke="#E53323" stroke-width="0.7609" stroke-linecap="round" stroke-linejoin="round" stroke-miterlimit="22.9256" x1="-79.324" y1="127.634" x2="-42.87" y2="91.003"/>
	
		<polyline fill="none" stroke="#1D1D1B" stroke-width="0.7609" stroke-linecap="round" stroke-linejoin="round" stroke-miterlimit="22.9256" points="
		-79.324,127.636 -73.303,127.634 -42.87,84.906 -42.87,78.609 	"/>
	
		<path fill="none" stroke="#E53323" stroke-width="0.7609" stroke-linecap="round" stroke-linejoin="round" stroke-miterlimit="22.9256" d="
		M-55.008,127.636l12.122-61.129 M-67.032,127.433l24.162-48.824 M-91.592,127.634l48.722-24.504 M-103.744,127.54l60.874-12.119"/>
	
		<path fill="none" stroke="#1D1D1B" stroke-width="0.7609" stroke-linecap="round" stroke-linejoin="round" stroke-miterlimit="22.9256" d="
		M-42.87,115.423v6.113l-60.873,6.098h6.245l54.629-18.391v-6.113 M-42.87,91.003v6.008l-42.663,30.623h-6.059"/>
	
		<line fill="none" stroke="#1D1D1B" stroke-width="0.7609" stroke-linecap="round" stroke-linejoin="round" stroke-miterlimit="22.9256" x1="-39.467" y1="121.601" x2="-39.467" y2="60.163"/>
	
		<line fill="none" stroke="#1D1D1B" stroke-width="0.7609" stroke-linecap="round" stroke-linejoin="round" stroke-miterlimit="22.9256" x1="-36.125" y1="130.433" x2="-110.049" y2="130.433"/>
	
		<polyline fill="none" stroke="#1D1D1B" stroke-width="0.7609" stroke-linecap="round" stroke-linejoin="round" stroke-miterlimit="22.9256" points="
		-55.008,127.634 -48.871,127.634 -42.87,66.415 -42.87,72.728 -60.967,127.634 -67.046,127.636 	"/>
</g>
</svg>
