<?xml version="1.0" encoding="utf-8"?>
<!-- Generator: Adobe Illustrator 21.1.0, SVG Export Plug-In . SVG Version: 6.00 Build 0)  -->
<svg version="1.1" id="Capa_1" xmlns:x="&ns_extend;" xmlns:i="&ns_ai;" xmlns:graph="&ns_graphs;"
	 xmlns="http://www.w3.org/2000/svg" xmlns:xlink="http://www.w3.org/1999/xlink" x="0px" y="0px" viewBox="0 0 20 20"
	 style="enable-background:new 0 0 20 20;" xml:space="preserve">
<style type="text/css">
	.st0{fill:#990000;}
</style>
<metadata>
	<sfw  xmlns="&ns_sfw;">
		<slices></slices>
		<sliceSourceBounds  bottomLeftOrigin="true" height="19.4" width="18.8" x="0.6" y="0.3"></sliceSourceBounds>
	</sfw>
</metadata>
<g>
	<polygon class="st0" points="1.4,19.7 17,19.7 9.2,11.9 	"/>
	<circle class="st0" cx="14.5" cy="5" r="1.5"/>
	<path class="st0" d="M14.5,0.3c-1.7,0-3.3,0.9-4.1,2.3H1c-0.2,0-0.4,0.2-0.4,0.4v16L10.8,8.7c0.2,0.3,0.4,0.5,0.6,0.8
		c0,0,0.1,0.1,0.1,0.1L10,11.1l7.8,7.8V9.1c0.8-1,1.6-2.2,1.6-3.9C19.4,2.5,17.2,0.3,14.5,0.3z M8.2,7c0,1.6-1.3,2.9-2.9,2.9
		C3.7,9.9,2.5,8.6,2.5,7c0-1.6,1.3-2.9,2.9-2.9c0.6,0,1.2,0.2,1.7,0.6L6.4,5.6C6.1,5.4,5.7,5.3,5.3,5.3C4.3,5.3,3.5,6,3.5,7
		s0.8,1.8,1.8,1.8c0.8,0,1.5-0.5,1.7-1.2H5.3V6.5h2.9h0V7z M14.7,13h-0.2h-0.2c0-3.7-3.5-4.6-3.5-7.8c0-2.1,1.7-3.8,3.8-3.8
		c2.1,0,3.8,1.7,3.8,3.8C18.3,8.4,14.7,9.3,14.7,13z"/>
</g>
</svg>
