<?xml version="1.0" encoding="utf-8"?>
<!-- Generator: Adobe Illustrator 21.1.0, SVG Export Plug-In . SVG Version: 6.00 Build 0)  -->
<svg version="1.1" id="Capa_1" xmlns="http://www.w3.org/2000/svg" xmlns:xlink="http://www.w3.org/1999/xlink" x="0px" y="0px"
	 viewBox="0 0 20 20" style="enable-background:new 0 0 20 20;" xml:space="preserve">
<style type="text/css">
	.st0{fill:#990000;}
</style>
<path class="st0" d="M2.6,0h14.9C18.8,0,20,1.2,20,2.6v14.9c0,1.4-1.2,2.6-2.6,2.6H2.6C1.2,20,0,18.8,0,17.4V2.6C0,1.2,1.2,0,2.6,0z
	 M14.6,2.2c-0.5,0-0.9,0.4-0.9,0.9v2.2c0,0.5,0.4,0.9,0.9,0.9h2.3c0.5,0,0.9-0.4,0.9-0.9V3.1c0-0.5-0.4-0.9-0.9-0.9
	C16.8,2.2,14.6,2.2,14.6,2.2z M17.7,8.5H16c0.2,0.5,0.3,1.1,0.3,1.7c0,3.3-2.8,6-6.2,6c-3.4,0-6.2-2.7-6.2-6c0-0.6,0.1-1.2,0.3-1.7
	H2.2v8.4c0,0.4,0.4,0.8,0.8,0.8h13.9c0.4,0,0.8-0.4,0.8-0.8L17.7,8.5L17.7,8.5z M10,6.1c-2.2,0-4,1.7-4,3.9c0,2.1,1.8,3.9,4,3.9
	c2.2,0,4-1.7,4-3.9C14,7.8,12.2,6.1,10,6.1z"/>
</svg>
