<?xml version="1.0" encoding="utf-8"?>
<!-- Generator: Adobe Illustrator 16.0.0, SVG Export Plug-In . SVG Version: 6.00 Build 0)  -->
<!DOCTYPE svg PUBLIC "-//W3C//DTD SVG 1.1//EN" "http://www.w3.org/Graphics/SVG/1.1/DTD/svg11.dtd">
<svg version="1.1" id="Capa_1" xmlns="http://www.w3.org/2000/svg" xmlns:xlink="http://www.w3.org/1999/xlink" x="0px" y="0px"
	 width="20px" height="20px" viewBox="0 0 20 20" enable-background="new 0 0 20 20" xml:space="preserve">
<path fill="#FFFFFF" d="M18.521,0.043H1.475C0.661,0.043,0,0.686,0,1.48V18.52c0,0.793,0.661,1.438,1.476,1.438h17.045
	c0.813,0,1.479-0.646,1.479-1.438V1.479C20,0.685,19.336,0.043,18.521,0.043z M5.934,17.01H2.963V7.507h2.971V17.01z M4.448,6.211
	c-0.954,0-1.721-0.77-1.721-1.714c0-0.945,0.768-1.713,1.721-1.713c0.949,0,1.719,0.768,1.719,1.713
	C6.167,5.441,5.397,6.211,4.448,6.211z M17.043,17.01h-2.967v-4.619c0-1.102-0.021-2.521-1.543-2.521
	c-1.541,0-1.777,1.202-1.777,2.439v4.699H7.793v-9.5h2.843v1.301h0.041c0.396-0.747,1.365-1.535,2.808-1.535
	c3.006,0,3.559,1.968,3.559,4.525V17.01z"/>
</svg>
