<?xml version="1.0" encoding="utf-8"?>
<!-- Generator: Adobe Illustrator 16.0.0, SVG Export Plug-In . SVG Version: 6.00 Build 0)  -->
<!DOCTYPE svg PUBLIC "-//W3C//DTD SVG 1.1//EN" "http://www.w3.org/Graphics/SVG/1.1/DTD/svg11.dtd">
<svg version="1.1" id="Capa_1" xmlns="http://www.w3.org/2000/svg" xmlns:xlink="http://www.w3.org/1999/xlink" x="0px" y="0px"
	 width="20px" height="20px" viewBox="0 0 20 20" enable-background="new 0 0 20 20" xml:space="preserve">
<g>
	<g>
		<g>
			<defs>
				<path id="SVGID_1_" d="M20.001,18.154c0,1.021-0.827,1.846-1.846,1.846H1.846c-1.021,0-1.847-0.825-1.847-1.846V1.846
					C-0.001,0.825,0.825,0,1.846,0h16.31c1.019,0,1.846,0.825,1.846,1.846V18.154z"/>
			</defs>
			<clipPath id="SVGID_2_">
				<use xlink:href="#SVGID_1_"  overflow="visible"/>
			</clipPath>
		</g>
	</g>
	<path fill="#FFFFFF" d="M18.155,0H1.846C0.825,0-0.001,0.825-0.001,1.846v16.309c0,1.021,0.826,1.846,1.847,1.846h9.102v-7.221
		H8.003V9.366h2.943V6.85c0-2.92,1.785-4.511,4.391-4.511c1.248,0,2.32,0.093,2.631,0.135v3.052h-1.807
		c-1.416,0-1.689,0.674-1.689,1.661v2.178h3.379l-0.441,3.413l-2.939,0.002V20h3.686c1.019,0,1.846-0.825,1.846-1.846V1.846
		C20.001,0.825,19.174,0,18.155,0z"/>
</g>
</svg>
