<?xml version="1.0" encoding="utf-8"?>
<!-- Generator: Adobe Illustrator 16.0.0, SVG Export Plug-In . SVG Version: 6.00 Build 0)  -->
<!DOCTYPE svg PUBLIC "-//W3C//DTD SVG 1.1//EN" "http://www.w3.org/Graphics/SVG/1.1/DTD/svg11.dtd">
<svg version="1.1" id="Capa_1" xmlns="http://www.w3.org/2000/svg" xmlns:xlink="http://www.w3.org/1999/xlink" x="0px" y="0px"
	 width="20px" height="20px" viewBox="0 0 20 20" enable-background="new 0 0 20 20" xml:space="preserve">
<g>
	<path fill="#FFFFFF" d="M8.27,0H7.138L6.374,2.937L5.579,0H4.4c0.235,0.693,0.481,1.39,0.718,2.082
		c0.359,1.043,0.584,1.828,0.686,2.366v3.028h1.12V4.449L8.27,0z M11.261,5.672V3.721c0-0.595-0.102-1.03-0.313-1.312
		c-0.28-0.381-0.672-0.571-1.178-0.571c-0.502,0-0.896,0.19-1.176,0.571C8.38,2.69,8.278,3.125,8.278,3.721v1.952
		c0,0.592,0.102,1.031,0.315,1.311C8.873,7.363,9.268,7.553,9.77,7.553c0.506,0,0.897-0.19,1.178-0.569
		C11.159,6.704,11.261,6.266,11.261,5.672z M10.252,5.863c0,0.515-0.156,0.773-0.481,0.773c-0.326,0-0.482-0.257-0.482-0.773V3.52
		c0-0.517,0.156-0.772,0.482-0.772c0.325,0,0.481,0.256,0.481,0.772V5.863z M14.995,7.477V1.906h-1.01v4.257
		c-0.228,0.316-0.438,0.473-0.641,0.473c-0.135,0-0.214-0.08-0.236-0.236c-0.014-0.033-0.014-0.156-0.014-0.394v-4.1h-1.006v4.406
		c0,0.393,0.033,0.66,0.091,0.827c0.101,0.282,0.324,0.415,0.649,0.415c0.367,0,0.751-0.223,1.152-0.684v0.607H14.995L14.995,7.477z
		"/>
	<g>
		<path fill="#FFFFFF" d="M15.536,13.133c-0.334,0-0.501,0.256-0.501,0.764v0.51h0.997v-0.51
			C16.032,13.389,15.866,13.133,15.536,13.133z"/>
		<path fill="#FFFFFF" d="M11.829,13.133c-0.166,0-0.333,0.078-0.498,0.242v3.363c0.165,0.164,0.332,0.242,0.498,0.242
			c0.287,0,0.434-0.244,0.434-0.742v-2.352C12.263,13.391,12.116,13.133,11.829,13.133z"/>
		<path fill="#FFFFFF" d="M17.978,10.33c-0.201-0.878-0.92-1.527-1.785-1.623c-2.053-0.23-4.127-0.23-6.191-0.23
			c-2.063,0-4.139,0-6.188,0.23C2.947,8.804,2.229,9.452,2.026,10.33c-0.289,1.254-0.291,2.62-0.291,3.909
			c0,1.287,0,2.654,0.287,3.908c0.203,0.877,0.92,1.525,1.787,1.623C5.858,20,7.934,20,9.999,20c2.064,0,4.141,0,6.189-0.23
			c0.865-0.1,1.586-0.746,1.787-1.623c0.289-1.254,0.289-2.619,0.289-3.908S18.267,11.582,17.978,10.33z M6.45,11.457v0.002H5.252
			v6.354h-1.11v-6.354H2.966v-1.043H6.45V11.457z M9.469,17.813H8.468v-0.6c-0.396,0.455-0.773,0.678-1.142,0.678
			c-0.321,0-0.544-0.129-0.643-0.412c-0.056-0.166-0.088-0.43-0.088-0.82v-4.357h0.998v4.059c0,0.234,0,0.355,0.01,0.389
			c0.024,0.154,0.101,0.23,0.234,0.23c0.2,0,0.411-0.152,0.631-0.465v-4.213h1V17.813z M13.263,16.16c0,0.51-0.033,0.875-0.1,1.111
			c-0.135,0.41-0.402,0.619-0.799,0.619c-0.355,0-0.698-0.195-1.031-0.609v0.533h-0.999v-7.398h0.998v2.416
			c0.321-0.396,0.664-0.598,1.03-0.598c0.398,0,0.668,0.209,0.8,0.623c0.067,0.221,0.101,0.586,0.101,1.107V16.16z M17.034,15.238
			h-1.998v0.979c0,0.51,0.167,0.764,0.51,0.764c0.245,0,0.389-0.131,0.445-0.4c0.011-0.055,0.021-0.275,0.021-0.676h1.021v0.146
			c0,0.32-0.014,0.543-0.022,0.643c-0.034,0.221-0.112,0.422-0.233,0.598c-0.276,0.4-0.688,0.598-1.209,0.598
			c-0.522,0-0.92-0.188-1.211-0.564c-0.209-0.277-0.318-0.713-0.318-1.297v-1.93c0-0.592,0.096-1.021,0.311-1.301
			c0.285-0.377,0.685-0.564,1.194-0.564c0.499,0,0.899,0.188,1.179,0.564c0.209,0.279,0.311,0.709,0.311,1.301V15.238z"/>
	</g>
</g>
</svg>
