<?xml version="1.0" encoding="utf-8"?>
<!-- Generator: Adobe Illustrator 16.0.0, SVG Export Plug-In . SVG Version: 6.00 Build 0)  -->
<!DOCTYPE svg PUBLIC "-//W3C//DTD SVG 1.1//EN" "http://www.w3.org/Graphics/SVG/1.1/DTD/svg11.dtd">
<svg version="1.1" id="Capa_1" xmlns="http://www.w3.org/2000/svg" xmlns:xlink="http://www.w3.org/1999/xlink" x="0px" y="0px"
	 width="20px" height="20px" viewBox="0 0 20 20" enable-background="new 0 0 20 20" xml:space="preserve">
<path fill="#FFFFFF" d="M20,3.798c-0.735,0.326-1.526,0.547-2.356,0.645c0.848-0.509,1.498-1.311,1.803-2.27
	c-0.791,0.47-1.668,0.812-2.604,0.996c-0.748-0.797-1.814-1.295-2.994-1.295c-2.266,0-4.104,1.837-4.104,4.104
	c0,0.322,0.037,0.634,0.106,0.935C6.44,6.741,3.417,5.106,1.393,2.624C1.04,3.229,0.839,3.935,0.839,4.688
	c0,1.424,0.725,2.678,1.824,3.416C1.992,8.08,1.358,7.896,0.805,7.589v0.053c0,1.987,1.414,3.646,3.292,4.021
	c-0.346,0.095-0.71,0.146-1.082,0.146c-0.265,0-0.521-0.025-0.773-0.074c0.522,1.631,2.036,2.816,3.832,2.851
	c-1.403,1.101-3.172,1.757-5.096,1.757c-0.33,0-0.655-0.021-0.978-0.059c1.815,1.164,3.973,1.843,6.29,1.843
	c7.546,0,11.673-6.252,11.673-11.674c0-0.177-0.004-0.354-0.01-0.53C18.754,5.344,19.448,4.62,20,3.798z"/>
</svg>
