<?xml version="1.0" encoding="utf-8"?>
<!-- Generator: Adobe Illustrator 16.0.0, SVG Export Plug-In . SVG Version: 6.00 Build 0)  -->
<!DOCTYPE svg PUBLIC "-//W3C//DTD SVG 1.1//EN" "http://www.w3.org/Graphics/SVG/1.1/DTD/svg11.dtd">
<svg version="1.1" id="Capa_1" xmlns="http://www.w3.org/2000/svg" xmlns:xlink="http://www.w3.org/1999/xlink" x="0px" y="0px"
	 width="20px" height="20px" viewBox="0 0 20 20" enable-background="new 0 0 20 20" xml:space="preserve">
<path fill="#FFFFFF" d="M10,0C4.478,0,0,4.478,0,10c0,5.521,4.478,10,10,10c5.523,0,10-4.479,10-10C20,4.478,15.523,0,10,0z
	 M9.986,18.891c-0.918,0-1.801-0.138-2.634-0.396c0.363-0.592,0.905-1.561,1.105-2.332c0.109-0.414,0.556-2.112,0.556-2.112
	c0.29,0.554,1.138,1.021,2.038,1.021c2.682,0,4.613-2.467,4.613-5.529c0-2.936-2.396-5.135-5.48-5.135
	c-3.837,0-5.875,2.577-5.875,5.381c0,1.304,0.694,2.928,1.804,3.443c0.169,0.077,0.258,0.045,0.298-0.119
	c0.03-0.123,0.18-0.728,0.247-1.008c0.021-0.09,0.01-0.168-0.061-0.256c-0.37-0.446-0.662-1.265-0.662-2.03
	c0-1.96,1.485-3.857,4.014-3.857c2.184,0,3.714,1.487,3.714,3.616c0,2.405-1.214,4.071-2.796,4.071c-0.87,0-1.524-0.72-1.313-1.607
	c0.249-1.056,0.735-2.195,0.735-2.959c0-0.683-0.367-1.252-1.125-1.252c-0.892,0-1.607,0.923-1.607,2.159
	c0,0.788,0.264,1.321,0.264,1.321s-0.88,3.724-1.042,4.419c-0.178,0.768-0.109,1.846-0.031,2.549
	c-3.307-1.295-5.65-4.512-5.65-8.278c0-4.91,3.981-8.891,8.892-8.891c4.909,0,8.888,3.983,8.885,8.891
	C18.875,14.911,14.895,18.891,9.986,18.891z"/>
</svg>
