<?xml version="1.0" encoding="utf-8"?>
<!-- Generator: Adobe Illustrator 21.1.0, SVG Export Plug-In . SVG Version: 6.00 Build 0)  -->
<svg version="1.1" id="Capa_1" xmlns="http://www.w3.org/2000/svg" xmlns:xlink="http://www.w3.org/1999/xlink" x="0px" y="0px"
	 viewBox="0 0 206 167.8" style="enable-background:new 0 0 206 167.8;" xml:space="preserve">
<style type="text/css">
	.st0{opacity:0.85;fill:#000080;}
	.st1{fill:#3B6EFF;}
	.st2{fill:#00ABF6;}
	.st3{opacity:0.8;}
	.st4{fill:#11348C;}
	.st5{fill:#000080;}
	.st6{fill:#1A00EB;}
	.st7{fill:#1C4FB5;}
	.st8{fill:#FFFFFF;stroke:#3B6EFF;stroke-width:1.654;stroke-linecap:round;stroke-linejoin:round;stroke-miterlimit:10;}
	.st9{enable-background:new    ;}
	.st10{fill:none;stroke:#3B6EFF;stroke-width:0.4678;stroke-linecap:round;stroke-linejoin:round;}
	.st11{fill:none;stroke:#3B6EFF;stroke-width:0.4678;stroke-linecap:round;stroke-linejoin:round;stroke-dasharray:0.7545,0.7545;}
	.st12{fill:none;stroke:#3B6EFF;stroke-width:0.4678;stroke-linecap:round;stroke-linejoin:round;stroke-dasharray:0.8016,0.8016;}
	.st13{fill:none;stroke:#3B6EFF;stroke-width:0.4678;stroke-linecap:round;stroke-linejoin:round;stroke-dasharray:0.7514,0.7514;}
	.st14{fill:none;stroke:#3B6EFF;stroke-width:0.4678;stroke-linecap:round;stroke-linejoin:round;stroke-dasharray:0.8027,0.8027;}
	.st15{fill:none;stroke:#3B6EFF;stroke-width:0.4678;stroke-linecap:round;stroke-linejoin:round;stroke-dasharray:0.7374,0.7374;}
	.st16{fill:none;stroke:#3B6EFF;stroke-width:0.4678;stroke-linecap:round;stroke-linejoin:round;stroke-dasharray:0.7788,0.7788;}
	.st17{opacity:0.85;}
	.st18{fill:none;stroke:#000080;stroke-width:0.4858;stroke-miterlimit:10;}
</style>
<g>
	<g>
		<polygon class="st0" points="66.4,100.9 61.4,109.6 66.4,118.4 76.6,118.4 81.6,109.6 76.6,100.9 		"/>
		<g>
			<g>
				<path class="st1" d="M59.9,55.6l3.6,6.1l-3.6,6.1h-7.1l-3.6-6.1l3.6-6.1H59.9 M60.9,53.9h-9l-4.5,7.8l4.5,7.8h9l4.5-7.8
					L60.9,53.9L60.9,53.9z"/>
			</g>
		</g>
		<g>
			<path class="st2" d="M38.7,61.1l3.6,6.2l-3.6,6.2h-7.2L28,67.3l3.6-6.2H38.7 M39.5,59.8h-8.7l-4.4,7.5l4.4,7.5h8.7l4.4-7.5
				L39.5,59.8L39.5,59.8z"/>
		</g>
		<polygon class="st0" points="33.5,68.1 38.6,76.9 33.5,85.6 23.4,85.6 18.3,76.9 23.4,68.1 		"/>
		<g class="st3">
			<g>
				<path class="st4" d="M36.5,80.8l2.8,4.8l-2.8,4.8H31l-2.8-4.8l2.8-4.8H36.5 M36.9,80.1h-6.4l-3.2,5.5l3.2,5.5h6.4l3.2-5.5
					L36.9,80.1L36.9,80.1z"/>
			</g>
		</g>
		<polygon class="st5" points="46.3,48.3 49.5,53.8 46.3,59.4 39.9,59.4 36.7,53.8 39.9,48.3 		"/>
		<g class="st3">
			<g>
				<path class="st6" d="M22.7,56.4l2.8,4.8L22.7,66h-5.6l-2.8-4.8l2.8-4.8H22.7 M23.1,55.7h-6.4l-3.2,5.5l3.2,5.5h6.4l3.2-5.5
					L23.1,55.7L23.1,55.7z"/>
			</g>
		</g>
		<g class="st3">
			<path class="st6" d="M50,60.6l2,3.4l-2,3.4h-4l-2-3.4l2-3.4H50 M50.4,59.9h-4.8L43.3,64l2.4,4.1h4.8l2.4-4.1L50.4,59.9L50.4,59.9
				z"/>
		</g>
		<polygon class="st5" points="62.8,66.3 66.2,72.1 62.8,77.9 56.1,77.9 52.7,72.1 56.1,66.3 		"/>
		<polygon class="st0" points="19.1,103.8 23.4,111.3 19.1,118.8 10.4,118.8 6,111.3 10.4,103.8 		"/>
		<g>
			<path class="st2" d="M22.4,88.3l5.4,9.2l-5.4,9.2H11.7l-5.4-9.2l5.4-9.2H22.4 M23.4,86.7H10.7L4.4,97.6l6.3,10.9h12.6l6.3-10.9
				L23.4,86.7L23.4,86.7z"/>
		</g>
		<g>
			<path class="st7" d="M78,90l2.6,4.5L78,99.1h-5.3l-2.6-4.5l2.6-4.5H78 M78.6,89h-6.4L69,94.5l3.2,5.5h6.4l3.2-5.5L78.6,89
				L78.6,89z"/>
		</g>
		<g>
			<path class="st2" d="M66.3,98.6l3.6,6.2l-3.6,6.2h-7.2l-3.6-6.2l3.6-6.2H66.3 M67.1,97.2h-8.7l-4.4,7.5l4.4,7.5h8.7l4.4-7.5
				L67.1,97.2L67.1,97.2z"/>
		</g>
		<g>
			<polygon class="st1" points="38,93.7 43.9,103.9 38,114.1 26.2,114.1 20.2,103.9 26.2,93.7 			"/>
		</g>
		<g>
			<polygon class="st1" points="67.3,74.2 73.2,84.4 67.3,94.6 55.5,94.6 49.6,84.4 55.5,74.2 			"/>
		</g>
		<g class="st3">
			<path class="st6" d="M59.5,91.8l2.7,4.6l-2.7,4.6h-5.3l-2.7-4.6l2.7-4.6H59.5 M60,90.9h-6.4l-3.2,5.5l3.2,5.5H60l3.2-5.5L60,90.9
				L60,90.9z"/>
		</g>
		<path class="st8" d="M17.3,119c2.4-9.2,9-11.6,14.9-13.8c0.7-0.3,1.4-0.5,2-0.7c2.1-0.8,3.5-3.3,3.5-6.5c-0.3-0.4-0.5-0.7-0.8-1.1
			c-0.9-1.4-1.7-3.1-2.3-5.1c-0.1,0-0.2-0.1-0.3-0.1c-0.3-0.1-0.5-0.3-0.7-0.5c-0.3-0.3-0.5-0.7-0.7-1.3c-0.3-0.7-0.6-1.6-0.8-2.4
			c-0.2-0.9-0.4-1.8-0.4-2.4c0-0.3,0-0.5,0.1-0.7c0.1-0.3,0.1-0.5,0.3-0.7c0.2-0.3,0.4-0.5,0.6-0.7c-0.2-0.9-0.3-1.7-0.3-2.1
			c-0.1-1.7-0.3-7.4,1.9-10.5c1.2-1.7,3.1-3,5.4-3.8c0,0,0,0,0,0c0,0,0.1,0,0.3-0.1c0.8-0.3,1.6-0.5,2.5-0.6c0,0,0.1,0,0.1,0
			c1.5-0.2,3.7-0.4,5.9,0c0,0,0,0,0,0h0c0,0,0,0,0,0c3.6,0.6,6.6,2.2,8.2,4.6c2.2,3.1,2.1,8.8,1.9,10.5c0,0.4-0.1,1.2-0.3,2.1
			c0.2,0.2,0.4,0.4,0.6,0.7c0.1,0.2,0.2,0.4,0.3,0.7c0,0.2,0.1,0.4,0.1,0.7c0,0.7-0.1,1.5-0.4,2.4c-0.2,0.9-0.5,1.7-0.8,2.4
			c-0.3,0.5-0.5,0.9-0.7,1.2c-0.2,0.2-0.4,0.4-0.7,0.5c-0.1,0-0.2,0.1-0.3,0.1c-0.6,2-1.4,3.7-2.3,5.1c-0.3,0.4-0.5,0.8-0.8,1.1
			c0,3.1,1.4,5.7,3.5,6.5c0.7,0.3,1.3,0.5,2,0.7c5.8,2.1,12.3,4.5,14.8,13.5"/>
		<g>
			<g>
				<g>
					<g class="st9">
						<g>
							<g>
								<polygon class="st1" points="49,66.8 48.1,66.8 48,67.6 48.7,68.4 49.6,68.4 49.8,67.6 								"/>
							</g>
							<g>
								<polygon class="st1" points="43.9,69.2 45.1,69.2 45.5,70.2 44.7,71.2 43.5,71.2 43.1,70.2 								"/>
							</g>
							<g>
								<polygon class="st1" points="39.3,73.5 40.4,73.5 40.9,74.5 40.3,75.6 39.1,75.6 38.6,74.6 								"/>
							</g>
							<g>
								<polygon class="st1" points="37.4,78.3 38.5,78.2 39,79.3 38.4,80.3 37.3,80.4 36.8,79.4 								"/>
							</g>
							<g>
								<polygon class="st1" points="51,73.2 49.9,73.2 49.4,74.2 50,75.3 51.2,75.3 51.6,74.3 								"/>
							</g>
							<g>
								<polygon class="st1" points="53.9,73.8 52.8,73.8 52.4,74.7 53,75.8 54,75.8 54.5,74.8 								"/>
							</g>
							<g>
								<polygon class="st1" points="56.9,79.2 56,78.9 55.5,79.9 55.9,81.2 56.7,81.6 57.3,80.6 								"/>
							</g>
							<g>
								<polygon class="st1" points="51.4,82.1 50.2,81.9 49.6,83 50.1,84.3 51.3,84.6 52,83.4 								"/>
							</g>
							<g>
								<polygon class="st1" points="47.5,86.4 46.7,86.4 46.4,87.3 46.9,88.2 47.7,88.2 48,87.3 								"/>
							</g>
						</g>
					</g>
				</g>
				<g>
					<g>
						<path class="st10" d="M39.7,68.1c0,0,0.1,0,0.4-0.1"/>
						<path class="st11" d="M40.8,67.9c2.4-0.4,8.4-1,13,0.8"/>
						<path class="st10" d="M54.2,68.8c0.1,0.1,0.2,0.1,0.4,0.2"/>
					</g>
				</g>
				<g>
					<g>
						<path class="st10" d="M57.8,77.1c-0.1-0.1-0.2-0.2-0.3-0.3"/>
						<path class="st12" d="M57,76.3c-1.2-0.8-3.5-1.6-8.2-2c-5.3-0.4-9.3,0.2-11.9,0.9"/>
						<path class="st10" d="M36.5,75.3c-0.1,0-0.3,0.1-0.4,0.1"/>
					</g>
				</g>
				<g>
					<g>
						<path class="st10" d="M57.8,81.4c0,0-0.1-0.1-0.2-0.3"/>
						<path class="st13" d="M57,80.6c-1.7-1.3-6.5-3.5-18.7-1.5"/>
						<path class="st10" d="M38,79.2c-0.1,0-0.3,0-0.4,0.1"/>
					</g>
				</g>
				<g>
					<g>
						<path class="st10" d="M58.5,85.6c0,0-0.1-0.1-0.3-0.2"/>
						<path class="st14" d="M57.4,85c-2-1-6.9-2.8-15.3-1.5"/>
						<path class="st10" d="M41.7,83.5c-0.1,0-0.3,0-0.4,0.1"/>
					</g>
				</g>
				<g>
					<g>
						<path class="st10" d="M57,89.7c0-0.1,0-0.2-0.1-0.4"/>
						<path class="st15" d="M56.4,88.8c-0.9-0.7-3.1-1.4-8.3-1.4"/>
						<path class="st10" d="M47.8,87.4c-0.1,0-0.3,0-0.4,0"/>
					</g>
				</g>
			</g>
			<g>
				<g>
					<path class="st10" d="M57.4,73.5c0,0-0.1-0.1-0.2-0.3"/>
					<path class="st16" d="M56.6,72.6c-1.3-1-4.4-2.4-11.7-2.3"/>
					<path class="st10" d="M44.5,70.3c-0.1,0-0.3,0-0.4,0"/>
				</g>
			</g>
		</g>
		<g class="st17">
			<g>
				<path class="st4" d="M79.8,72.1l4.2,7.3l-4.2,7.3h-8.4l-4.2-7.3l4.2-7.3H79.8 M80.4,71h-9.7l-4.8,8.4l4.8,8.4h9.7l4.8-8.4
					L80.4,71L80.4,71z"/>
			</g>
		</g>
		<g>
			<path class="st7" d="M75.2,63.7l2.6,4.5l-2.6,4.5h-5.3l-2.6-4.5l2.6-4.5H75.2 M75.8,62.7h-6.4l-3.2,5.5l3.2,5.5h6.4l3.2-5.5
				L75.8,62.7L75.8,62.7z"/>
		</g>
		<g>
			<path class="st7" d="M21.6,70.9l3.5,6l-3.5,6h-7l-3.5-6l3.5-6H21.6 M22.1,69.9H14l-4,7l4,7h8.1l4-7L22.1,69.9L22.1,69.9z"/>
		</g>
	</g>
	<g>
		<g>
			<path class="st5" d="M89.6,53.4h5.4c4.4,0,7.4,3,7.4,6.9v0c0,3.9-3,7-7.4,7h-5.4V53.4z M95.1,64.6c2.5,0,4.2-1.7,4.2-4.2v0
				c0-2.5-1.7-4.2-4.2-4.2h-2.4v8.4H95.1z"/>
			<path class="st5" d="M104.9,52.8h3.2v2.7h-3.2V52.8z M105,56.6h3v10.7h-3V56.6z"/>
			<path class="st5" d="M110.9,56.6h3v2.2c0.6-1.5,1.6-2.4,3.4-2.4v3.2h-0.2c-2,0-3.3,1.2-3.3,3.8v3.9h-3V56.6z"/>
			<path class="st5" d="M118.4,62L118.4,62c0-3.1,2.2-5.6,5.3-5.6c3.6,0,5.2,2.8,5.2,5.8c0,0.2,0,0.5,0,0.8h-7.4
				c0.3,1.4,1.3,2.1,2.6,2.1c1,0,1.8-0.3,2.6-1.1l1.7,1.5c-1,1.2-2.4,2-4.4,2C120.8,67.6,118.4,65.3,118.4,62z M126,61.1
				c-0.2-1.4-1-2.3-2.3-2.3c-1.3,0-2.1,0.9-2.3,2.3H126z"/>
			<path class="st5" d="M130.6,62L130.6,62c0-3.1,2.3-5.6,5.6-5.6c2,0,3.3,0.7,4.3,1.8l-1.9,2c-0.7-0.7-1.4-1.2-2.4-1.2
				c-1.5,0-2.6,1.3-2.6,2.9v0c0,1.6,1.1,3,2.7,3c1,0,1.7-0.4,2.5-1.1l1.8,1.8c-1,1.1-2.2,2-4.4,2C133,67.6,130.6,65.1,130.6,62z"/>
			<path class="st5" d="M141.7,62L141.7,62c0-3.1,2.3-5.6,5.6-5.6c2,0,3.3,0.7,4.3,1.8l-1.9,2c-0.7-0.7-1.4-1.2-2.4-1.2
				c-1.5,0-2.6,1.3-2.6,2.9v0c0,1.6,1.1,3,2.7,3c1,0,1.7-0.4,2.5-1.1l1.8,1.8c-1,1.1-2.2,2-4.4,2C144.1,67.6,141.7,65.1,141.7,62z"
				/>
			<path class="st5" d="M153.7,52.8h3.2v2.7h-3.2V52.8z M153.8,56.6h3v10.7h-3V56.6z"/>
			<path class="st5" d="M159.1,62L159.1,62c0-3.1,2.5-5.6,5.8-5.6c3.3,0,5.8,2.5,5.8,5.5v0c0,3.1-2.5,5.6-5.8,5.6
				C161.6,67.6,159.1,65.1,159.1,62z M167.7,62L167.7,62c0-1.6-1.1-3-2.8-3c-1.7,0-2.8,1.3-2.8,2.9v0c0,1.6,1.1,3,2.8,3
				C166.7,65,167.7,63.6,167.7,62z M165.9,51.9l2.6,1.1l-2.6,2.4h-2.2L165.9,51.9z"/>
			<path class="st5" d="M172.9,56.6h3v1.5c0.7-0.9,1.6-1.7,3.1-1.7c2.3,0,3.6,1.5,3.6,4v6.9h-3v-6c0-1.4-0.7-2.2-1.8-2.2
				c-1.2,0-1.9,0.7-1.9,2.2v6h-3V56.6z"/>
			<path class="st5" d="M184.6,63.7L184.6,63.7c0-2.5,1.6-3.8,3.4-3.8c1.2,0,2,0.6,2.5,1.3v-3.9h1.7v10.1h-1.7v-1.2
				c-0.5,0.8-1.3,1.4-2.5,1.4C186.3,67.5,184.6,66.1,184.6,63.7z M190.6,63.7L190.6,63.7c0-1.4-1-2.4-2.1-2.4
				c-1.1,0-2.1,0.9-2.1,2.3v0c0,1.4,1,2.3,2.1,2.3C189.6,66,190.6,65.1,190.6,63.7z"/>
			<path class="st5" d="M193.9,63.7L193.9,63.7c0-2.1,1.5-3.8,3.6-3.8c2.3,0,3.5,1.8,3.5,3.9c0,0.2,0,0.3,0,0.5h-5.4
				c0.2,1.2,1,1.9,2.1,1.9c0.8,0,1.4-0.3,2-0.9l1,0.9c-0.7,0.8-1.6,1.4-3,1.4C195.5,67.5,193.9,66,193.9,63.7z M199.3,63.2
				c-0.1-1.1-0.7-1.9-1.9-1.9c-1,0-1.7,0.8-1.9,1.9H199.3z"/>
			<path class="st5" d="M93,74.2h-4.4v-2.9h11.9v2.9h-4.4v11.4H93V74.2z"/>
			<path class="st5" d="M99.9,80.2L99.9,80.2c0-3.2,2.2-5.8,5.4-5.8c3.7,0,5.3,2.8,5.3,6c0,0.2,0,0.5,0,0.8H103
				c0.3,1.4,1.3,2.2,2.7,2.2c1,0,1.8-0.3,2.7-1.1l1.8,1.6c-1,1.3-2.5,2-4.5,2C102.3,85.9,99.9,83.5,99.9,80.2z M107.6,79.3
				c-0.2-1.4-1-2.3-2.3-2.3c-1.3,0-2.1,0.9-2.4,2.3H107.6z"/>
			<path class="st5" d="M112.5,80.2L112.5,80.2c0-3.2,2.4-5.8,5.8-5.8c2.1,0,3.4,0.7,4.4,1.8l-1.9,2c-0.7-0.7-1.4-1.2-2.5-1.2
				c-1.6,0-2.7,1.4-2.7,3v0c0,1.7,1.1,3,2.8,3c1,0,1.8-0.5,2.5-1.2l1.8,1.8c-1.1,1.2-2.3,2-4.5,2C114.9,85.9,112.5,83.3,112.5,80.2z
				"/>
			<path class="st5" d="M124.7,74.6h3.1v1.6c0.7-0.9,1.6-1.8,3.2-1.8c2.4,0,3.7,1.6,3.7,4.1v7.1h-3.1v-6.1c0-1.5-0.7-2.2-1.9-2.2
				c-1.2,0-1.9,0.8-1.9,2.2v6.1h-3.1V74.6z"/>
			<path class="st5" d="M136.9,80.2L136.9,80.2c0-3.2,2.5-5.8,6-5.8c3.4,0,5.9,2.5,5.9,5.7v0c0,3.2-2.5,5.7-6,5.7
				C139.5,85.9,136.9,83.3,136.9,80.2z M145.7,80.2L145.7,80.2c0-1.7-1.2-3.1-2.9-3.1c-1.8,0-2.8,1.4-2.8,3v0c0,1.6,1.2,3,2.9,3
				C144.7,83.2,145.7,81.8,145.7,80.2z"/>
			<path class="st5" d="M151.2,70.6h3.1v15h-3.1V70.6z"/>
			<path class="st5" d="M156.7,80.2L156.7,80.2c0-3.2,2.5-5.8,6-5.8c3.4,0,5.9,2.5,5.9,5.7v0c0,3.2-2.5,5.7-6,5.7
				C159.2,85.9,156.7,83.3,156.7,80.2z M165.5,80.2L165.5,80.2c0-1.7-1.2-3.1-2.9-3.1c-1.8,0-2.8,1.4-2.8,3v0c0,1.6,1.2,3,2.9,3
				C164.5,83.2,165.5,81.8,165.5,80.2z"/>
			<path class="st5" d="M170.9,87.8l1.1-2.3c1.1,0.6,2.3,1,3.7,1c2.1,0,3.1-1,3.1-3v-0.5c-0.9,1.1-1.9,1.8-3.6,1.8
				c-2.6,0-4.9-1.9-4.9-5.1v0c0-3.3,2.4-5.1,4.9-5.1c1.7,0,2.7,0.7,3.5,1.6v-1.4h3.1v8.5c0,2-0.5,3.4-1.4,4.3c-1,1-2.6,1.5-4.7,1.5
				C174,88.9,172.3,88.5,170.9,87.8z M178.8,79.6L178.8,79.6c0-1.5-1.2-2.6-2.7-2.6c-1.5,0-2.7,1-2.7,2.5v0c0,1.5,1.1,2.5,2.7,2.5
				C177.7,82.1,178.8,81.1,178.8,79.6z"/>
			<path class="st5" d="M184.8,74.6h3.1v11h-3.1V74.6z M187.4,69.8l2.7,1.2l-2.7,2.5h-2.3L187.4,69.8z"/>
			<path class="st5" d="M190.2,82.5L190.2,82.5c0-2.4,1.8-3.5,4.4-3.5c1.1,0,1.9,0.2,2.7,0.5v-0.2c0-1.3-0.8-2-2.4-2
				c-1.2,0-2,0.2-3,0.6l-0.8-2.4c1.2-0.5,2.4-0.9,4.3-0.9c1.7,0,2.9,0.5,3.7,1.2c0.8,0.8,1.2,2,1.2,3.5v6.4h-3v-1.2
				c-0.8,0.8-1.8,1.4-3.3,1.4C191.9,85.8,190.2,84.6,190.2,82.5z M197.4,81.7v-0.6c-0.5-0.2-1.2-0.4-2-0.4c-1.3,0-2.2,0.5-2.2,1.5v0
				c0,0.8,0.7,1.3,1.7,1.3C196.4,83.7,197.4,82.9,197.4,81.7z"/>
		</g>
		<g>
			<path class="st5" d="M117,97.6L117,97.6c0-3.3,2.4-6.2,6-6.2c3.6,0,6,2.9,6,6.1v0c0,3.3-2.4,6.2-6,6.2
				C119.4,103.7,117,100.8,117,97.6z M128.1,97.6L128.1,97.6c0-3-2.2-5.4-5.1-5.4c-3,0-5.1,2.4-5.1,5.3v0c0,3,2.2,5.4,5.1,5.4
				C126,102.9,128.1,100.5,128.1,97.6z"/>
			<path class="st5" d="M131.2,101.8l0.6-0.7c1.3,1.2,2.5,1.8,4.3,1.8c1.8,0,3-1,3-2.4v0c0-1.3-0.7-2-3.4-2.5c-2.9-0.6-4-1.6-4-3.4
				v0c0-1.8,1.6-3.1,3.8-3.1c1.7,0,2.9,0.5,4.1,1.5l-0.6,0.7c-1.1-1-2.3-1.3-3.6-1.3c-1.8,0-2.9,1-2.9,2.3v0c0,1.3,0.6,2,3.5,2.6
				c2.8,0.6,3.9,1.6,3.9,3.3v0c0,1.9-1.7,3.3-4,3.3C134.1,103.7,132.6,103,131.2,101.8z"/>
			<path class="st5" d="M143,91.6h0.9v12H143V91.6z"/>
			<path class="st5" d="M147.6,91.6h5c1.5,0,2.6,0.5,3.4,1.2c0.6,0.6,0.9,1.4,0.9,2.2v0c0,2-1.5,3.1-3.5,3.4l3.9,5.1h-1.1l-3.8-5
				h-3.9v5h-0.9V91.6z M152.5,97.8c2,0,3.5-1,3.5-2.7v0c0-1.6-1.3-2.6-3.4-2.6h-4.1v5.4H152.5z"/>
			<path class="st5" d="M160,91.6h0.9v12H160V91.6z"/>
			<path class="st5" d="M163.8,101.8l0.6-0.7c1.3,1.2,2.5,1.8,4.3,1.8c1.8,0,3-1,3-2.4v0c0-1.3-0.7-2-3.4-2.5c-2.9-0.6-4-1.6-4-3.4
				v0c0-1.8,1.6-3.1,3.8-3.1c1.7,0,2.9,0.5,4.1,1.5l-0.6,0.7c-1.1-1-2.3-1.3-3.6-1.3c-1.8,0-2.9,1-2.9,2.3v0c0,1.3,0.6,2,3.5,2.6
				c2.8,0.6,3.9,1.6,3.9,3.3v0c0,1.9-1.7,3.3-4,3.3C166.7,103.7,165.2,103,163.8,101.8z"/>
		</g>
		<line class="st18" x1="89.6" y1="97.2" x2="112.4" y2="97.2"/>
		<line class="st18" x1="178.7" y1="97.2" x2="201.6" y2="97.2"/>
		<g>
			<path class="st5" d="M92,116.6h-1.5v1.4h1.6v0.4h-2.1v-3.8h2v0.4h-1.6v1.2H92V116.6z"/>
			<path class="st5" d="M92.7,117.8c0.1,0.1,0.4,0.2,0.7,0.2c0.4,0,0.5-0.2,0.5-0.4c0-0.2-0.1-0.4-0.5-0.5c-0.5-0.2-0.7-0.4-0.7-0.8
				c0-0.4,0.4-0.8,0.9-0.8c0.3,0,0.5,0.1,0.7,0.2l-0.1,0.4c-0.1-0.1-0.3-0.2-0.6-0.2c-0.3,0-0.5,0.2-0.5,0.4c0,0.2,0.2,0.3,0.5,0.5
				c0.5,0.2,0.7,0.4,0.7,0.8c0,0.5-0.4,0.8-1,0.8c-0.3,0-0.6-0.1-0.8-0.2L92.7,117.8z"/>
			<path class="st5" d="M97,118.2c-0.1,0.1-0.4,0.2-0.8,0.2c-0.8,0-1.4-0.6-1.4-1.4c0-0.8,0.6-1.4,1.5-1.4c0.3,0,0.5,0.1,0.7,0.1
				l-0.1,0.4c-0.1-0.1-0.3-0.1-0.6-0.1c-0.6,0-1,0.5-1,1c0,0.6,0.4,1,0.9,1c0.3,0,0.5-0.1,0.6-0.1L97,118.2z"/>
			<path class="st5" d="M99.8,117.6c0,0.3,0,0.5,0,0.7h-0.4l0-0.4h0c-0.1,0.2-0.4,0.5-0.9,0.5c-0.4,0-0.9-0.2-0.9-1.2v-1.6H98v1.5
				c0,0.5,0.2,0.9,0.6,0.9c0.3,0,0.6-0.2,0.7-0.4c0-0.1,0-0.2,0-0.3v-1.7h0.5V117.6z"/>
			<path class="st5" d="M100.9,117.1c0,0.7,0.4,0.9,0.9,0.9c0.4,0,0.6-0.1,0.8-0.1l0.1,0.4c-0.2,0.1-0.5,0.2-0.9,0.2
				c-0.8,0-1.3-0.6-1.3-1.4c0-0.8,0.5-1.5,1.3-1.5c0.9,0,1.1,0.8,1.1,1.3c0,0.1,0,0.2,0,0.2H100.9z M102.4,116.7
				c0-0.3-0.1-0.8-0.7-0.8c-0.5,0-0.7,0.5-0.8,0.8H102.4z"/>
			<path class="st5" d="M103.4,114.3h0.5v4h-0.5V114.3z"/>
			<path class="st5" d="M106.3,118.3l0-0.3h0c-0.2,0.2-0.4,0.4-0.8,0.4c-0.5,0-0.8-0.4-0.8-0.8c0-0.7,0.6-1,1.6-1v-0.1
				c0-0.2-0.1-0.6-0.6-0.6c-0.3,0-0.5,0.1-0.7,0.2l-0.1-0.3c0.2-0.1,0.5-0.2,0.9-0.2c0.8,0,1,0.6,1,1.1v1c0,0.2,0,0.5,0,0.7H106.3z
				 M106.2,116.9c-0.5,0-1.2,0.1-1.2,0.6c0,0.3,0.2,0.5,0.5,0.5c0.4,0,0.6-0.2,0.7-0.5c0-0.1,0-0.1,0-0.2V116.9z"/>
			<path class="st5" d="M111.3,118.2c-0.2,0.1-0.5,0.2-1,0.2c-1.1,0-1.9-0.7-1.9-1.9c0-1.2,0.8-2,2-2c0.5,0,0.8,0.1,0.9,0.2
				l-0.1,0.4c-0.2-0.1-0.4-0.2-0.8-0.2c-0.9,0-1.5,0.6-1.5,1.6c0,0.9,0.5,1.5,1.5,1.5c0.3,0,0.6-0.1,0.8-0.2L111.3,118.2z"/>
			<path class="st5" d="M114.3,117c0,1-0.7,1.4-1.4,1.4c-0.7,0-1.3-0.5-1.3-1.4c0-0.9,0.6-1.4,1.3-1.4
				C113.8,115.6,114.3,116.1,114.3,117z M112.2,117c0,0.6,0.3,1,0.8,1c0.5,0,0.8-0.4,0.8-1.1c0-0.5-0.2-1-0.8-1
				C112.4,115.9,112.2,116.5,112.2,117z"/>
			<path class="st5" d="M114.9,114.3h0.5v4h-0.5V114.3z"/>
			<path class="st5" d="M118.7,117c0,1-0.7,1.4-1.4,1.4c-0.7,0-1.3-0.5-1.3-1.4c0-0.9,0.6-1.4,1.3-1.4
				C118.2,115.6,118.7,116.1,118.7,117z M116.6,117c0,0.6,0.3,1,0.8,1c0.5,0,0.8-0.4,0.8-1.1c0-0.5-0.2-1-0.8-1
				C116.8,115.9,116.6,116.5,116.6,117z"/>
			<path class="st5" d="M119.3,116.3c0-0.3,0-0.5,0-0.7h0.4l0,0.4h0c0.2-0.3,0.4-0.5,0.9-0.5c0.4,0,0.7,0.2,0.8,0.5h0
				c0.1-0.2,0.2-0.3,0.3-0.4c0.2-0.1,0.3-0.2,0.6-0.2c0.4,0,0.9,0.2,0.9,1.2v1.6h-0.5v-1.5c0-0.5-0.2-0.8-0.6-0.8
				c-0.3,0-0.5,0.2-0.6,0.4c0,0.1,0,0.2,0,0.2v1.7H121v-1.6c0-0.4-0.2-0.7-0.6-0.7c-0.3,0-0.5,0.2-0.6,0.5c0,0.1,0,0.2,0,0.2v1.6
				h-0.5V116.3z"/>
			<path class="st5" d="M124,118.3c0-0.2,0-0.5,0-0.7v-3.3h0.5v1.7h0c0.2-0.3,0.5-0.5,0.9-0.5c0.7,0,1.2,0.6,1.1,1.4
				c0,1-0.6,1.5-1.2,1.5c-0.4,0-0.7-0.2-0.9-0.5h0l0,0.4H124z M124.5,117.2c0,0.1,0,0.1,0,0.2c0.1,0.3,0.4,0.6,0.7,0.6
				c0.5,0,0.8-0.4,0.8-1c0-0.5-0.3-1-0.8-1c-0.3,0-0.7,0.2-0.8,0.6c0,0.1,0,0.1,0,0.2V117.2z"/>
			<path class="st5" d="M127.8,114.9c0,0.2-0.1,0.3-0.3,0.3c-0.2,0-0.3-0.1-0.3-0.3c0-0.2,0.1-0.3,0.3-0.3
				C127.6,114.5,127.8,114.7,127.8,114.9z M127.2,118.3v-2.7h0.5v2.7H127.2z"/>
			<path class="st5" d="M130,118.3l0-0.3h0c-0.2,0.2-0.4,0.4-0.8,0.4c-0.5,0-0.8-0.4-0.8-0.8c0-0.7,0.6-1,1.6-1v-0.1
				c0-0.2-0.1-0.6-0.6-0.6c-0.3,0-0.5,0.1-0.7,0.2l-0.1-0.3c0.2-0.1,0.5-0.2,0.9-0.2c0.8,0,1,0.6,1,1.1v1c0,0.2,0,0.5,0,0.7H130z
				 M130,116.9c-0.5,0-1.2,0.1-1.2,0.6c0,0.3,0.2,0.5,0.5,0.5c0.4,0,0.6-0.2,0.7-0.5c0-0.1,0-0.1,0-0.2V116.9z"/>
			<path class="st5" d="M131.2,116.3c0-0.3,0-0.5,0-0.7h0.4l0,0.4h0c0.1-0.3,0.4-0.5,0.9-0.5c0.4,0,1,0.2,1,1.2v1.6H133v-1.6
				c0-0.4-0.2-0.8-0.6-0.8c-0.3,0-0.6,0.2-0.7,0.5c0,0.1,0,0.1,0,0.2v1.6h-0.5V116.3z"/>
			<path class="st5" d="M135.8,118.3l0-0.3h0c-0.2,0.2-0.4,0.4-0.8,0.4c-0.5,0-0.8-0.4-0.8-0.8c0-0.7,0.6-1,1.6-1v-0.1
				c0-0.2-0.1-0.6-0.6-0.6c-0.3,0-0.5,0.1-0.7,0.2l-0.1-0.3c0.2-0.1,0.5-0.2,0.9-0.2c0.8,0,1,0.6,1,1.1v1c0,0.2,0,0.5,0,0.7H135.8z
				 M135.8,116.9c-0.5,0-1.2,0.1-1.2,0.6c0,0.3,0.2,0.5,0.5,0.5c0.4,0,0.6-0.2,0.7-0.5c0-0.1,0-0.1,0-0.2V116.9z"/>
			<path class="st5" d="M140.6,114.3v3.3c0,0.2,0,0.5,0,0.7h-0.4l0-0.5h0c-0.2,0.3-0.5,0.5-0.9,0.5c-0.7,0-1.2-0.6-1.2-1.4
				c0-0.9,0.6-1.5,1.2-1.5c0.4,0,0.7,0.2,0.8,0.4h0v-1.6H140.6z M140.1,116.7c0-0.1,0-0.1,0-0.2c-0.1-0.3-0.3-0.6-0.7-0.6
				c-0.5,0-0.8,0.4-0.8,1c0,0.5,0.3,1,0.8,1c0.3,0,0.6-0.2,0.7-0.6c0-0.1,0-0.1,0-0.2V116.7z"/>
			<path class="st5" d="M141.7,117.1c0,0.7,0.4,0.9,0.9,0.9c0.4,0,0.6-0.1,0.8-0.1l0.1,0.4c-0.2,0.1-0.5,0.2-0.9,0.2
				c-0.8,0-1.3-0.6-1.3-1.4c0-0.8,0.5-1.5,1.3-1.5c0.9,0,1.1,0.8,1.1,1.3c0,0.1,0,0.2,0,0.2H141.7z M143.1,116.7
				c0-0.3-0.1-0.8-0.7-0.8c-0.5,0-0.7,0.5-0.8,0.8H143.1z"/>
			<path class="st5" d="M145.9,114.5v3.8h-0.5v-3.8H145.9z"/>
			<path class="st5" d="M146.8,116.3c0-0.3,0-0.5,0-0.7h0.4l0,0.4h0c0.1-0.3,0.4-0.5,0.9-0.5c0.4,0,1,0.2,1,1.2v1.6h-0.5v-1.6
				c0-0.4-0.2-0.8-0.6-0.8c-0.3,0-0.6,0.2-0.7,0.5c0,0.1,0,0.1,0,0.2v1.6h-0.5V116.3z"/>
			<path class="st5" d="M152.3,115.6c0,0.2,0,0.4,0,0.7v1.6c0,0.6-0.1,1-0.4,1.2c-0.3,0.2-0.6,0.3-1,0.3c-0.3,0-0.7-0.1-0.9-0.2
				l0.1-0.4c0.2,0.1,0.5,0.2,0.8,0.2c0.5,0,0.9-0.3,0.9-0.9v-0.3h0c-0.2,0.3-0.4,0.5-0.9,0.5c-0.7,0-1.2-0.6-1.2-1.3
				c0-0.9,0.6-1.4,1.2-1.4c0.5,0,0.7,0.2,0.8,0.5h0l0-0.4H152.3z M151.7,116.7c0-0.1,0-0.2,0-0.2c-0.1-0.3-0.3-0.5-0.7-0.5
				c-0.5,0-0.8,0.4-0.8,1c0,0.5,0.3,1,0.8,1c0.3,0,0.6-0.2,0.7-0.5c0-0.1,0-0.2,0-0.3V116.7z"/>
			<path class="st5" d="M153.3,117.1c0,0.7,0.4,0.9,0.9,0.9c0.4,0,0.6-0.1,0.8-0.1l0.1,0.4c-0.2,0.1-0.5,0.2-0.9,0.2
				c-0.8,0-1.3-0.6-1.3-1.4c0-0.8,0.5-1.5,1.3-1.5c0.9,0,1.1,0.8,1.1,1.3c0,0.1,0,0.2,0,0.2H153.3z M154.8,116.7
				c0-0.3-0.1-0.8-0.7-0.8c-0.5,0-0.7,0.5-0.8,0.8H154.8z"/>
			<path class="st5" d="M155.9,116.3c0-0.3,0-0.5,0-0.7h0.4l0,0.4h0c0.1-0.3,0.4-0.5,0.9-0.5c0.4,0,1,0.2,1,1.2v1.6h-0.5v-1.6
				c0-0.4-0.2-0.8-0.6-0.8c-0.3,0-0.6,0.2-0.7,0.5c0,0.1,0,0.1,0,0.2v1.6h-0.5V116.3z"/>
			<path class="st5" d="M159.5,114.9c0,0.2-0.1,0.3-0.3,0.3c-0.2,0-0.3-0.1-0.3-0.3c0-0.2,0.1-0.3,0.3-0.3
				C159.4,114.5,159.5,114.7,159.5,114.9z M159,118.3v-2.7h0.5v2.7H159z"/>
			<path class="st5" d="M160.6,117.1c0,0.7,0.4,0.9,0.9,0.9c0.4,0,0.6-0.1,0.8-0.1l0.1,0.4c-0.2,0.1-0.5,0.2-0.9,0.2
				c-0.8,0-1.3-0.6-1.3-1.4c0-0.8,0.5-1.5,1.3-1.5c0.9,0,1.1,0.8,1.1,1.3c0,0.1,0,0.2,0,0.2H160.6z M162,116.7
				c0-0.3-0.1-0.8-0.7-0.8c-0.5,0-0.7,0.5-0.8,0.8H162z"/>
			<path class="st5" d="M163.1,116.5c0-0.3,0-0.6,0-0.8h0.4l0,0.5h0c0.1-0.4,0.4-0.6,0.8-0.6c0.1,0,0.1,0,0.1,0v0.5
				c-0.1,0-0.1,0-0.2,0c-0.3,0-0.6,0.3-0.7,0.6c0,0.1,0,0.1,0,0.2v1.4h-0.5V116.5z"/>
			<path class="st5" d="M166,114.4l-0.7,0.8h-0.4l0.5-0.8H166z M165,118.3v-2.7h0.5v2.7H165z"/>
			<path class="st5" d="M167.8,118.3l0-0.3h0c-0.2,0.2-0.4,0.4-0.8,0.4c-0.5,0-0.8-0.4-0.8-0.8c0-0.7,0.6-1,1.6-1v-0.1
				c0-0.2-0.1-0.6-0.6-0.6c-0.3,0-0.5,0.1-0.7,0.2l-0.1-0.3c0.2-0.1,0.5-0.2,0.9-0.2c0.8,0,1,0.6,1,1.1v1c0,0.2,0,0.5,0,0.7H167.8z
				 M167.7,116.9c-0.5,0-1.2,0.1-1.2,0.6c0,0.3,0.2,0.5,0.5,0.5c0.4,0,0.6-0.2,0.7-0.5c0-0.1,0-0.1,0-0.2V116.9z"/>
			<path class="st5" d="M171,114.5h0.5v2.5c0,1-0.5,1.3-1.1,1.3c-0.2,0-0.4,0-0.5-0.1l0.1-0.4c0.1,0,0.2,0.1,0.4,0.1
				c0.4,0,0.7-0.2,0.7-0.9V114.5z"/>
			<path class="st5" d="M174.5,117.6c0,0.3,0,0.5,0,0.7h-0.4l0-0.4h0c-0.1,0.2-0.4,0.5-0.9,0.5c-0.4,0-0.9-0.2-0.9-1.2v-1.6h0.5v1.5
				c0,0.5,0.2,0.9,0.6,0.9c0.3,0,0.6-0.2,0.7-0.4c0-0.1,0-0.2,0-0.3v-1.7h0.5V117.6z"/>
			<path class="st5" d="M175.3,114.3h0.5v4h-0.5V114.3z"/>
			<path class="st5" d="M177.2,114.9c0,0.2-0.1,0.3-0.3,0.3c-0.2,0-0.3-0.1-0.3-0.3c0-0.2,0.1-0.3,0.3-0.3
				C177.1,114.5,177.2,114.7,177.2,114.9z M176.7,118.3v-2.7h0.5v2.7H176.7z"/>
			<path class="st5" d="M180.4,117c0,1-0.7,1.4-1.4,1.4c-0.7,0-1.3-0.5-1.3-1.4c0-0.9,0.6-1.4,1.3-1.4
				C179.9,115.6,180.4,116.1,180.4,117z M178.3,117c0,0.6,0.3,1,0.8,1c0.5,0,0.8-0.4,0.8-1.1c0-0.5-0.2-1-0.8-1
				C178.5,115.9,178.3,116.5,178.3,117z"/>
			<path class="st5" d="M185.1,118.2c-0.2,0.1-0.7,0.2-1.2,0.2c-0.6,0-1-0.1-1.4-0.5c-0.3-0.3-0.5-0.8-0.5-1.4c0-1.1,0.8-2,2-2
				c0.4,0,0.8,0.1,0.9,0.2l-0.1,0.4c-0.2-0.1-0.5-0.2-0.8-0.2c-0.9,0-1.5,0.6-1.5,1.5c0,1,0.6,1.5,1.5,1.5c0.3,0,0.5,0,0.7-0.1v-1.1
				h-0.8v-0.4h1.2V118.2z"/>
			<path class="st5" d="M187.4,118.3l0-0.3h0c-0.2,0.2-0.4,0.4-0.8,0.4c-0.5,0-0.8-0.4-0.8-0.8c0-0.7,0.6-1,1.6-1v-0.1
				c0-0.2-0.1-0.6-0.6-0.6c-0.3,0-0.5,0.1-0.7,0.2l-0.1-0.3c0.2-0.1,0.5-0.2,0.9-0.2c0.8,0,1,0.6,1,1.1v1c0,0.2,0,0.5,0,0.7H187.4z
				 M187.3,116.9c-0.5,0-1.2,0.1-1.2,0.6c0,0.3,0.2,0.5,0.5,0.5c0.4,0,0.6-0.2,0.7-0.5c0-0.1,0-0.1,0-0.2V116.9z"/>
			<path class="st5" d="M188.6,116.5c0-0.3,0-0.6,0-0.8h0.4l0,0.5h0c0.1-0.4,0.4-0.6,0.8-0.6c0.1,0,0.1,0,0.1,0v0.5
				c-0.1,0-0.1,0-0.2,0c-0.3,0-0.6,0.3-0.7,0.6c0,0.1,0,0.1,0,0.2v1.4h-0.5V116.5z"/>
			<path class="st5" d="M191.9,118.3l0-0.3h0c-0.2,0.2-0.4,0.4-0.8,0.4c-0.5,0-0.8-0.4-0.8-0.8c0-0.7,0.6-1,1.6-1v-0.1
				c0-0.2-0.1-0.6-0.6-0.6c-0.3,0-0.5,0.1-0.7,0.2l-0.1-0.3c0.2-0.1,0.5-0.2,0.9-0.2c0.8,0,1,0.6,1,1.1v1c0,0.2,0,0.5,0,0.7H191.9z
				 M191.8,116.9c-0.5,0-1.2,0.1-1.2,0.6c0,0.3,0.2,0.5,0.5,0.5c0.4,0,0.6-0.2,0.7-0.5c0-0.1,0-0.1,0-0.2V116.9z"/>
			<path class="st5" d="M193.3,115.6l0.5,1.5c0.1,0.2,0.2,0.5,0.2,0.7h0c0.1-0.2,0.1-0.4,0.2-0.7l0.5-1.5h0.5l-1.1,2.7h-0.5l-1-2.7
				H193.3z"/>
			<path class="st5" d="M196.3,114.9c0,0.2-0.1,0.3-0.3,0.3c-0.2,0-0.3-0.1-0.3-0.3c0-0.2,0.1-0.3,0.3-0.3
				C196.2,114.5,196.3,114.7,196.3,114.9z M195.8,118.3v-2.7h0.5v2.7H195.8z"/>
			<path class="st5" d="M197.7,114.8v0.8h0.7v0.4h-0.7v1.5c0,0.3,0.1,0.5,0.4,0.5c0.1,0,0.2,0,0.3,0l0,0.4c-0.1,0-0.2,0.1-0.4,0.1
				c-0.2,0-0.4-0.1-0.5-0.2c-0.1-0.1-0.2-0.4-0.2-0.7V116h-0.4v-0.4h0.4V115L197.7,114.8z"/>
			<path class="st5" d="M201.4,117c0,1-0.7,1.4-1.4,1.4c-0.7,0-1.3-0.5-1.3-1.4c0-0.9,0.6-1.4,1.3-1.4
				C200.8,115.6,201.4,116.1,201.4,117z M199.2,117c0,0.6,0.3,1,0.8,1c0.5,0,0.8-0.4,0.8-1.1c0-0.5-0.2-1-0.8-1
				C199.5,115.9,199.2,116.5,199.2,117z"/>
		</g>
	</g>
</g>
</svg>
