<?xml version="1.0" encoding="utf-8"?>
<!-- Generator: Adobe Illustrator 16.0.0, SVG Export Plug-In . SVG Version: 6.00 Build 0)  -->
<!DOCTYPE svg PUBLIC "-//W3C//DTD SVG 1.1//EN" "http://www.w3.org/Graphics/SVG/1.1/DTD/svg11.dtd">
<svg version="1.1" id="Capa_1" xmlns="http://www.w3.org/2000/svg" xmlns:xlink="http://www.w3.org/1999/xlink" x="0px" y="0px"
	 width="150px" height="90px" viewBox="0 0 150 90" enable-background="new 0 0 150 90" xml:space="preserve">
<g>
	<g>
		<path fill="#FFFFFF" d="M64.874,22.064v-8.093h5.852v0.955h-4.781v2.479h4.479v0.95h-4.479v2.754h4.971v0.955H64.874
			L64.874,22.064z M71.974,19.755l0.896-0.079c0.043,0.358,0.144,0.654,0.298,0.884c0.155,0.231,0.395,0.416,0.725,0.562
			c0.322,0.142,0.691,0.209,1.099,0.209c0.364,0,0.685-0.054,0.959-0.158c0.28-0.109,0.487-0.258,0.624-0.444
			c0.137-0.189,0.208-0.394,0.208-0.616c0-0.227-0.065-0.423-0.2-0.592c-0.132-0.167-0.345-0.309-0.646-0.422
			c-0.191-0.076-0.617-0.191-1.277-0.354c-0.658-0.156-1.125-0.307-1.389-0.447c-0.34-0.181-0.596-0.405-0.764-0.669
			c-0.17-0.266-0.252-0.566-0.252-0.896c0-0.36,0.102-0.702,0.307-1.014c0.207-0.318,0.509-0.557,0.904-0.72
			c0.395-0.163,0.834-0.245,1.314-0.245c0.535,0,1.003,0.086,1.412,0.258c0.402,0.17,0.721,0.422,0.939,0.755
			c0.213,0.334,0.336,0.712,0.352,1.132l-0.913,0.069c-0.05-0.454-0.214-0.798-0.498-1.029c-0.278-0.231-0.698-0.346-1.251-0.346
			c-0.576,0-0.994,0.103-1.258,0.315c-0.262,0.21-0.395,0.465-0.395,0.762c0,0.26,0.096,0.47,0.279,0.636
			c0.186,0.169,0.662,0.339,1.436,0.511c0.77,0.177,1.299,0.33,1.592,0.459c0.416,0.195,0.724,0.438,0.924,0.732
			c0.195,0.297,0.301,0.638,0.301,1.024c0,0.382-0.111,0.739-0.329,1.077c-0.217,0.339-0.532,0.603-0.944,0.789
			c-0.41,0.188-0.869,0.282-1.383,0.282c-0.652,0-1.197-0.095-1.636-0.285c-0.438-0.188-0.782-0.474-1.032-0.854
			C72.118,20.667,71.985,20.236,71.974,19.755L71.974,19.755z M84.117,19.544l0.951,0.239c-0.2,0.781-0.562,1.376-1.077,1.786
			c-0.52,0.411-1.15,0.615-1.898,0.615c-0.774,0-1.402-0.158-1.889-0.472c-0.484-0.315-0.854-0.773-1.105-1.37
			c-0.254-0.598-0.381-1.24-0.381-1.926c0-0.747,0.146-1.399,0.434-1.958c0.285-0.558,0.689-0.979,1.22-1.27
			s1.108-0.434,1.739-0.434c0.723,0,1.328,0.183,1.814,0.548c0.486,0.367,0.832,0.882,1.022,1.544l-0.935,0.22
			c-0.172-0.522-0.412-0.901-0.726-1.141c-0.315-0.239-0.714-0.359-1.196-0.359c-0.553,0-1.013,0.133-1.387,0.397
			c-0.369,0.265-0.631,0.62-0.781,1.066c-0.146,0.445-0.227,0.903-0.227,1.378c0,0.611,0.083,1.143,0.268,1.603
			c0.178,0.453,0.457,0.796,0.83,1.021c0.377,0.227,0.785,0.34,1.223,0.34c0.531,0,0.982-0.155,1.354-0.462
			C83.736,20.606,83.984,20.148,84.117,19.544L84.117,19.544z M90.95,14.88h0.945v4.151c0,0.722-0.079,1.294-0.239,1.718
			c-0.164,0.426-0.462,0.77-0.886,1.035c-0.426,0.27-0.983,0.399-1.678,0.399c-0.674,0-1.226-0.115-1.651-0.347
			c-0.431-0.231-0.733-0.567-0.914-1.01c-0.187-0.438-0.274-1.036-0.274-1.798v-4.15h0.948v4.146c0,0.624,0.058,1.085,0.177,1.379
			c0.112,0.295,0.314,0.523,0.594,0.684c0.279,0.163,0.631,0.239,1.037,0.239c0.695,0,1.197-0.158,1.494-0.476
			c0.301-0.315,0.443-0.925,0.443-1.826v-4.146L90.95,14.88L90.95,14.88z M93.509,22.064V14.88h5.19v0.849h-4.241v2.198h3.975v0.845
			h-3.975v2.443h4.406v0.849H93.509L93.509,22.064z M100.14,22.064V14.88h0.951v6.334h3.541v0.849L100.14,22.064L100.14,22.064z
			 M104.972,22.064l2.76-7.184h1.025l2.938,7.184h-1.085l-0.84-2.175h-3.002l-0.787,2.175H104.972L104.972,22.064z M107.044,19.113
			h2.436l-0.752-1.988c-0.227-0.603-0.398-1.101-0.508-1.489c-0.094,0.462-0.226,0.918-0.391,1.374L107.044,19.113L107.044,19.113z
			 M70.628,31.857l1.072,0.271c-0.227,0.878-0.63,1.551-1.214,2.012c-0.583,0.461-1.296,0.691-2.138,0.691
			c-0.875,0-1.582-0.178-2.129-0.531c-0.547-0.356-0.965-0.871-1.246-1.542c-0.287-0.675-0.432-1.399-0.432-2.17
			c0-0.842,0.163-1.578,0.482-2.204c0.322-0.627,0.781-1.104,1.378-1.43c0.591-0.328,1.247-0.49,1.962-0.49
			c0.811,0,1.488,0.205,2.04,0.62c0.556,0.41,0.938,0.989,1.153,1.737l-1.055,0.249c-0.188-0.59-0.457-1.016-0.818-1.286
			c-0.354-0.271-0.803-0.402-1.346-0.402c-0.619,0-1.139,0.147-1.557,0.445c-0.417,0.301-0.712,0.7-0.879,1.203
			c-0.172,0.5-0.256,1.02-0.256,1.553c0,0.688,0.102,1.288,0.299,1.803c0.203,0.512,0.514,0.896,0.936,1.149
			c0.428,0.257,0.885,0.382,1.379,0.382c0.599,0,1.103-0.175,1.523-0.519C70.201,33.051,70.479,32.536,70.628,31.857L70.628,31.857z
			 M72.63,31.195c0-1.192,0.32-2.126,0.963-2.801c0.637-0.673,1.467-1.011,2.479-1.011c0.661,0,1.261,0.158,1.791,0.474
			c0.532,0.32,0.94,0.76,1.22,1.327c0.277,0.564,0.42,1.21,0.42,1.926c0,0.729-0.145,1.382-0.438,1.956
			c-0.297,0.574-0.713,1.01-1.254,1.305c-0.539,0.295-1.118,0.444-1.743,0.444c-0.677,0-1.281-0.163-1.812-0.492
			c-0.535-0.325-0.939-0.772-1.213-1.337C72.767,32.424,72.63,31.827,72.63,31.195L72.63,31.195z M73.611,31.21
			c0,0.866,0.231,1.548,0.698,2.046c0.463,0.497,1.05,0.745,1.75,0.745c0.718,0,1.306-0.248,1.769-0.751
			c0.46-0.503,0.692-1.219,0.692-2.144c0-0.584-0.102-1.093-0.299-1.532c-0.193-0.437-0.487-0.772-0.867-1.015
			c-0.383-0.24-0.811-0.359-1.281-0.359c-0.676,0-1.252,0.233-1.74,0.696C73.853,29.356,73.611,30.132,73.611,31.21L73.611,31.21z
			 M80.687,34.695v-7.184h0.951v6.334h3.539v0.85H80.687L80.687,34.695z M86.019,31.195c0-1.192,0.318-2.126,0.959-2.801
			c0.643-0.673,1.469-1.011,2.482-1.011c0.66,0,1.264,0.158,1.793,0.474c0.531,0.32,0.938,0.76,1.221,1.327
			c0.279,0.564,0.42,1.21,0.42,1.926c0,0.729-0.147,1.382-0.44,1.956c-0.294,0.574-0.712,1.01-1.251,1.305
			c-0.537,0.295-1.117,0.444-1.742,0.444c-0.681,0-1.283-0.163-1.813-0.492c-0.537-0.325-0.939-0.772-1.215-1.337
			C86.155,32.424,86.019,31.827,86.019,31.195L86.019,31.195z M86.997,31.21c0,0.866,0.234,1.548,0.7,2.046
			c0.464,0.497,1.05,0.745,1.752,0.745c0.718,0,1.306-0.248,1.763-0.751c0.465-0.503,0.695-1.219,0.695-2.144
			c0-0.584-0.104-1.093-0.297-1.532c-0.2-0.437-0.486-0.772-0.868-1.015c-0.381-0.24-0.81-0.359-1.282-0.359
			c-0.676,0-1.257,0.233-1.738,0.696C87.238,29.356,86.997,30.132,86.997,31.21L86.997,31.21z M94.085,34.695v-7.184h1.432
			l1.697,5.086c0.158,0.473,0.272,0.828,0.342,1.063c0.08-0.26,0.209-0.645,0.387-1.151l1.719-4.996h1.275v7.184h-0.914v-6.013
			l-2.092,6.013h-0.854l-2.074-6.114v6.114L94.085,34.695L94.085,34.695z M102.437,34.695v-7.184h2.693
			c0.549,0,0.989,0.071,1.317,0.217c0.335,0.146,0.597,0.369,0.784,0.672c0.186,0.3,0.277,0.617,0.277,0.948
			c0,0.307-0.08,0.598-0.248,0.868c-0.166,0.269-0.418,0.488-0.752,0.656c0.433,0.127,0.767,0.343,1.004,0.65
			c0.231,0.309,0.352,0.671,0.352,1.089c0,0.337-0.072,0.649-0.215,0.939c-0.145,0.29-0.316,0.512-0.527,0.667
			c-0.207,0.158-0.47,0.273-0.785,0.354c-0.316,0.081-0.699,0.122-1.16,0.122H102.437L102.437,34.695z M103.386,30.529h1.553
			c0.421,0,0.725-0.027,0.908-0.084c0.242-0.069,0.426-0.188,0.547-0.356c0.119-0.167,0.186-0.376,0.186-0.626
			c0-0.237-0.059-0.448-0.174-0.629c-0.115-0.184-0.275-0.307-0.49-0.372c-0.215-0.066-0.574-0.103-1.091-0.103h-1.437
			L103.386,30.529L103.386,30.529z M103.386,33.845h1.787c0.307,0,0.523-0.012,0.648-0.032c0.219-0.042,0.4-0.104,0.545-0.198
			c0.146-0.089,0.27-0.225,0.368-0.397c0.091-0.176,0.14-0.376,0.14-0.606c0-0.267-0.068-0.5-0.205-0.698s-0.328-0.337-0.572-0.415
			c-0.242-0.082-0.594-0.12-1.047-0.12h-1.662L103.386,33.845L103.386,33.845z M109.328,34.695v-7.184h0.951v7.184H109.328
			L109.328,34.695z M111.165,34.695l2.762-7.184h1.022l2.938,7.184h-1.082l-0.84-2.178h-3.004l-0.783,2.178H111.165L111.165,34.695z
			 M113.239,31.743h2.436l-0.75-1.988c-0.228-0.604-0.4-1.1-0.51-1.49c-0.091,0.462-0.224,0.919-0.388,1.374L113.239,31.743
			L113.239,31.743z M118.64,34.695v-7.184h0.979l3.771,5.64v-5.64h0.914v7.184h-0.978l-3.772-5.646v5.646H118.64L118.64,34.695z
			 M125.108,34.695l2.76-7.184h1.023l2.938,7.184h-1.081l-0.839-2.178h-3.003l-0.785,2.178H125.108L125.108,34.695z M127.179,31.743
			h2.439l-0.753-1.988c-0.228-0.604-0.396-1.1-0.509-1.49c-0.088,0.462-0.217,0.919-0.389,1.374L127.179,31.743L127.179,31.743z
			 M64.757,47.324V40.14h2.475c0.555,0,0.982,0.035,1.279,0.103c0.412,0.097,0.764,0.269,1.053,0.517
			c0.379,0.318,0.664,0.727,0.849,1.229c0.19,0.499,0.285,1.066,0.285,1.708c0,0.545-0.063,1.026-0.192,1.453
			c-0.129,0.419-0.289,0.769-0.49,1.044c-0.199,0.275-0.416,0.496-0.653,0.652c-0.233,0.152-0.521,0.275-0.856,0.359
			c-0.334,0.082-0.722,0.125-1.152,0.125L64.757,47.324L64.757,47.324z M65.704,46.477h1.533c0.477,0,0.848-0.043,1.115-0.131
			c0.27-0.09,0.482-0.213,0.646-0.373c0.227-0.225,0.398-0.528,0.525-0.91c0.129-0.384,0.189-0.843,0.189-1.386
			c0-0.75-0.123-1.328-0.369-1.729c-0.25-0.403-0.547-0.676-0.9-0.812c-0.253-0.101-0.664-0.146-1.229-0.146h-1.512V46.477
			L65.704,46.477z M72.022,47.324V40.14h5.195v0.849h-4.244v2.196h3.974v0.847h-3.974v2.445h4.41v0.85L72.022,47.324L72.022,47.324z
			 M82.118,47.324V39.23h1.072v8.094H82.118L82.118,47.324z M84.968,47.324V40.14h0.979l3.77,5.641V40.14h0.912v7.184H89.65
			l-3.769-5.649v5.649H84.968L84.968,47.324z M95.589,44.507v-0.842l3.045-0.008v2.668c-0.469,0.369-0.951,0.652-1.449,0.842
			c-0.496,0.188-1.008,0.277-1.527,0.277c-0.703,0-1.348-0.146-1.923-0.451c-0.576-0.305-1.017-0.738-1.306-1.309
			c-0.297-0.57-0.439-1.213-0.439-1.918c0-0.7,0.145-1.35,0.438-1.959c0.289-0.604,0.711-1.053,1.266-1.35
			c0.548-0.293,1.182-0.439,1.895-0.439c0.522,0,0.989,0.082,1.409,0.253c0.423,0.171,0.753,0.399,0.987,0.702
			c0.238,0.304,0.422,0.695,0.546,1.178l-0.858,0.234c-0.111-0.367-0.242-0.653-0.4-0.862s-0.389-0.377-0.686-0.5
			c-0.295-0.125-0.627-0.188-0.988-0.188c-0.437,0-0.813,0.064-1.127,0.196c-0.316,0.134-0.574,0.308-0.768,0.524
			c-0.193,0.213-0.344,0.451-0.455,0.713c-0.182,0.441-0.273,0.925-0.273,1.445c0,0.639,0.111,1.174,0.334,1.607
			c0.223,0.432,0.543,0.749,0.963,0.961c0.426,0.209,0.869,0.311,1.344,0.311c0.415,0,0.814-0.08,1.205-0.24
			c0.393-0.156,0.689-0.328,0.891-0.506v-1.34H95.589L95.589,44.507z M100.052,47.324V40.14h5.194v0.849h-4.245v2.196h3.973v0.847
			h-3.973v2.445h4.406v0.85L100.052,47.324L100.052,47.324z M106.716,47.324V40.14h0.978l3.772,5.641V40.14h0.914v7.184h-0.978
			l-3.774-5.649v5.649H106.716L106.716,47.324z M114.136,47.324V40.14h0.951v7.184H114.136L114.136,47.324z M116.78,47.324V40.14
			h5.193v0.849h-4.246v2.196h3.977v0.847h-3.977v2.445h4.414v0.85L116.78,47.324L116.78,47.324z M123.474,47.324V40.14h3.183
			c0.642,0,1.13,0.063,1.459,0.191c0.333,0.131,0.601,0.357,0.802,0.684c0.2,0.328,0.299,0.689,0.299,1.086
			c0,0.511-0.164,0.938-0.496,1.287c-0.33,0.351-0.84,0.57-1.531,0.668c0.254,0.121,0.445,0.24,0.576,0.357
			c0.279,0.256,0.541,0.57,0.789,0.955l1.254,1.956h-1.197l-0.949-1.494c-0.277-0.436-0.509-0.765-0.686-0.987
			c-0.18-0.23-0.342-0.395-0.482-0.481c-0.145-0.093-0.285-0.155-0.436-0.19c-0.108-0.022-0.285-0.035-0.527-0.035h-1.105v3.188
			H123.474L123.474,47.324z M124.421,43.312h2.045c0.434,0,0.774-0.045,1.019-0.137c0.245-0.092,0.431-0.235,0.56-0.433
			c0.129-0.2,0.191-0.413,0.191-0.644c0-0.338-0.121-0.619-0.369-0.84c-0.248-0.219-0.641-0.328-1.17-0.328h-2.275V43.312
			L124.421,43.312z M130.867,47.324V40.14h0.949v7.184H130.867L130.867,47.324z M130.62,39.7l0.652-1.372h1.152l-1.072,1.372H130.62
			L130.62,39.7z M132.703,47.324l2.759-7.184h1.022l2.942,7.184h-1.086l-0.838-2.175h-3.004l-0.783,2.175H132.703L132.703,47.324z
			 M134.777,44.375h2.433l-0.75-1.988c-0.229-0.604-0.398-1.104-0.508-1.489c-0.098,0.461-0.227,0.917-0.393,1.37L134.777,44.375
			L134.777,44.375z M64.306,57.658l0.965-0.131c0.025,0.617,0.145,1.043,0.349,1.27c0.207,0.229,0.492,0.34,0.856,0.34
			c0.27,0,0.5-0.059,0.693-0.182c0.196-0.123,0.33-0.295,0.407-0.5c0.071-0.217,0.108-0.557,0.108-1.016v-5.576h1.072v5.518
			c0,0.678-0.084,1.203-0.248,1.57c-0.16,0.373-0.422,0.656-0.775,0.85c-0.357,0.197-0.773,0.297-1.254,0.297
			c-0.709,0-1.256-0.207-1.631-0.615C64.472,59.074,64.292,58.463,64.306,57.658L64.306,57.658z M75.122,52.773h0.954v4.15
			c0,0.721-0.085,1.297-0.249,1.717c-0.162,0.428-0.458,0.768-0.881,1.037c-0.428,0.27-0.986,0.4-1.68,0.4
			c-0.67,0-1.223-0.113-1.652-0.35c-0.426-0.23-0.734-0.568-0.915-1.006c-0.183-0.443-0.276-1.043-0.276-1.801V52.77h0.953v4.146
			c0,0.625,0.057,1.086,0.172,1.379c0.117,0.295,0.316,0.523,0.598,0.684c0.281,0.164,0.632,0.242,1.039,0.242
			c0.699,0,1.199-0.158,1.496-0.475c0.295-0.314,0.445-0.928,0.445-1.826L75.122,52.773L75.122,52.773z M77.615,59.957v-7.186h0.951
			v6.336h3.538v0.85H77.615L77.615,59.957z M83.397,59.957v-7.186h0.951v7.186H83.397L83.397,59.957z M85.734,56.459
			c0-1.193,0.319-2.127,0.958-2.801c0.643-0.678,1.468-1.014,2.484-1.014c0.662,0,1.264,0.16,1.793,0.473
			c0.529,0.322,0.938,0.768,1.217,1.328c0.275,0.566,0.42,1.211,0.42,1.93c0,0.729-0.145,1.383-0.439,1.955
			c-0.293,0.574-0.713,1.01-1.248,1.305c-0.545,0.297-1.123,0.445-1.744,0.445c-0.679,0-1.285-0.164-1.817-0.492
			c-0.529-0.324-0.933-0.771-1.208-1.34C85.874,57.686,85.734,57.088,85.734,56.459L85.734,56.459z M86.72,56.473
			c0,0.865,0.229,1.547,0.692,2.047c0.468,0.498,1.054,0.748,1.753,0.748c0.721,0,1.305-0.25,1.77-0.754
			c0.459-0.506,0.693-1.217,0.693-2.139c0-0.586-0.103-1.1-0.3-1.529c-0.198-0.436-0.489-0.773-0.866-1.012
			c-0.382-0.242-0.812-0.361-1.283-0.361c-0.672,0-1.254,0.23-1.738,0.695C86.962,54.619,86.72,55.393,86.72,56.473L86.72,56.473z
			 M100.859,56.781v-0.945l3.425-0.008v3.002c-0.527,0.42-1.064,0.732-1.628,0.949c-0.56,0.207-1.138,0.316-1.72,0.316
			c-0.799,0-1.52-0.174-2.168-0.514c-0.649-0.342-1.141-0.832-1.471-1.477c-0.332-0.646-0.496-1.363-0.496-2.162
			c0-0.785,0.168-1.521,0.496-2.205c0.326-0.686,0.801-1.189,1.424-1.52c0.615-0.332,1.328-0.5,2.131-0.5
			c0.589,0,1.111,0.098,1.589,0.287c0.476,0.186,0.846,0.451,1.108,0.789c0.271,0.338,0.473,0.781,0.617,1.328l-0.973,0.268
			c-0.123-0.414-0.271-0.738-0.449-0.975c-0.18-0.238-0.436-0.428-0.773-0.564c-0.336-0.145-0.705-0.213-1.112-0.213
			c-0.491,0-0.914,0.076-1.271,0.227c-0.359,0.146-0.643,0.344-0.863,0.588c-0.221,0.242-0.389,0.512-0.512,0.803
			c-0.205,0.5-0.309,1.045-0.309,1.629c0,0.721,0.124,1.326,0.373,1.809c0.246,0.488,0.609,0.85,1.084,1.084
			c0.473,0.236,0.979,0.352,1.511,0.352c0.468,0,0.915-0.09,1.358-0.27c0.439-0.176,0.775-0.365,1.006-0.568v-1.51H100.859
			L100.859,56.781z M104.981,59.957l2.758-7.186h1.021l2.94,7.186h-1.082l-0.841-2.176h-3.003l-0.784,2.176H104.981L104.981,59.957z
			 M107.05,57.006h2.438l-0.753-1.99c-0.229-0.604-0.398-1.098-0.51-1.488c-0.092,0.461-0.221,0.916-0.389,1.375L107.05,57.006
			L107.05,57.006z M112.478,59.957v-7.186h3.185c0.644,0,1.126,0.064,1.462,0.193c0.331,0.129,0.6,0.354,0.799,0.684
			c0.199,0.326,0.301,0.688,0.301,1.082c0,0.514-0.166,0.939-0.496,1.291c-0.332,0.352-0.838,0.57-1.525,0.666
			c0.25,0.121,0.439,0.24,0.57,0.359c0.277,0.252,0.544,0.572,0.789,0.953l1.252,1.957h-1.196l-0.946-1.496
			c-0.277-0.432-0.512-0.764-0.689-0.988c-0.178-0.229-0.336-0.391-0.48-0.48c-0.142-0.09-0.285-0.148-0.432-0.189
			c-0.111-0.02-0.286-0.035-0.529-0.035h-1.105v3.191h-0.953L112.478,59.957L112.478,59.957z M113.429,55.945h2.041
			c0.436,0,0.775-0.045,1.02-0.139c0.244-0.092,0.434-0.236,0.559-0.434c0.129-0.193,0.191-0.408,0.191-0.645
			c0-0.336-0.123-0.619-0.37-0.838c-0.241-0.219-0.636-0.326-1.168-0.326h-2.272V55.945L113.429,55.945z M118.921,59.957l2.76-7.186
			h1.022l2.938,7.186h-1.084l-0.838-2.176h-3.002l-0.787,2.176H118.921L118.921,59.957z M120.994,57.006h2.437l-0.752-1.99
			c-0.228-0.604-0.397-1.098-0.506-1.488c-0.097,0.461-0.224,0.916-0.391,1.375L120.994,57.006L120.994,57.006z M127.71,59.957
			l-2.781-7.186h1.027l1.868,5.217c0.151,0.418,0.272,0.813,0.375,1.18c0.112-0.396,0.242-0.787,0.392-1.18l1.938-5.217h0.97
			l-2.813,7.186H127.71L127.71,59.957z M132.517,59.957v-7.186h0.949v7.186H132.517L132.517,59.957z M136.968,59.957v-6.336h-2.367
			v-0.85h5.693v0.85h-2.377v6.336H136.968L136.968,59.957z M140.8,56.459c0-1.193,0.317-2.127,0.961-2.801
			c0.644-0.678,1.473-1.014,2.48-1.014c0.664,0,1.268,0.16,1.797,0.473c0.53,0.322,0.936,0.768,1.215,1.328
			c0.28,0.566,0.422,1.211,0.422,1.93c0,0.729-0.146,1.383-0.438,1.955c-0.297,0.574-0.715,1.01-1.247,1.305
			c-0.544,0.297-1.127,0.445-1.748,0.445c-0.679,0-1.278-0.164-1.812-0.492c-0.53-0.324-0.936-0.771-1.211-1.34
			C140.937,57.686,140.8,57.088,140.8,56.459L140.8,56.459z M141.778,56.473c0,0.865,0.234,1.547,0.699,2.047
			c0.466,0.498,1.048,0.748,1.748,0.748c0.722,0,1.303-0.25,1.77-0.754c0.461-0.506,0.689-1.217,0.689-2.139
			c0-0.586-0.104-1.1-0.297-1.529c-0.197-0.436-0.486-0.773-0.865-1.012c-0.381-0.242-0.811-0.361-1.283-0.361
			c-0.676,0-1.251,0.23-1.736,0.695C142.021,54.619,141.778,55.393,141.778,56.473L141.778,56.473z"/>
		
			<line fill="none" stroke="#FFFFFF" stroke-width="0.6343" stroke-miterlimit="10" x1="26.374" y1="62.965" x2="54.767" y2="34.431"/>
		<polyline fill="none" stroke="#FFFFFF" stroke-width="0.6343" stroke-miterlimit="10" points="26.374,62.965 31.063,62.965 
			54.767,29.684 54.767,24.78 		"/>
		<path fill="none" stroke="#FFFFFF" stroke-width="0.6343" stroke-miterlimit="10" d="M45.313,62.965l9.441-47.609 M35.946,62.809
			l18.82-38.029 M16.819,62.965L54.769,43.88 M7.354,62.891l47.415-9.439"/>
		<path fill="none" stroke="#FFFFFF" stroke-width="0.6343" stroke-miterlimit="10" d="M54.767,53.451v4.768L7.353,62.965h4.862
			l42.552-14.324v-4.762 M54.767,34.431v4.682L21.538,62.965h-4.72"/>
		
			<line fill="none" stroke="#FFFFFF" stroke-width="0.6343" stroke-miterlimit="10" x1="57.417" y1="58.264" x2="57.417" y2="10.414"/>
		
			<line fill="none" stroke="#FFFFFF" stroke-width="0.6343" stroke-miterlimit="10" x1="60.021" y1="65.145" x2="2.442" y2="65.145"/>
		<polyline fill="none" stroke="#FFFFFF" stroke-width="0.6343" stroke-miterlimit="10" points="45.313,62.965 50.093,62.965 
			54.767,15.282 54.767,20.199 40.673,62.965 35.938,62.965 		"/>
	</g>
	<g>
		<path fill="#FFFFFF" d="M24.407,71.283h1.714c0.865,0,1.511,0.355,1.937,1.064s0.639,1.738,0.639,3.09
			c0,0.758-0.097,1.457-0.29,2.098s-0.491,1.121-0.895,1.441c-0.402,0.32-0.866,0.48-1.391,0.48h-1.714V71.283z M25.131,71.998
			v6.768h0.992c0.646,0,1.112-0.299,1.396-0.896s0.426-1.492,0.426-2.68c0-1.037-0.147-1.828-0.442-2.373s-0.755-0.818-1.38-0.818
			H25.131z"/>
		<path fill="#FFFFFF" d="M31.888,71.148c0.717,0,1.297,0.381,1.74,1.143s0.665,1.832,0.665,3.211c0,1.238-0.229,2.229-0.687,2.971
			c-0.457,0.742-1.039,1.113-1.745,1.113c-0.72,0-1.306-0.365-1.756-1.098s-0.676-1.748-0.676-3.045c0-1.32,0.219-2.365,0.654-3.137
			C30.521,71.535,31.122,71.148,31.888,71.148z M31.92,71.875c-0.596,0-1.035,0.334-1.316,1c-0.282,0.666-0.423,1.537-0.423,2.615
			c0,1.02,0.146,1.834,0.441,2.441c0.294,0.607,0.702,0.91,1.224,0.91c0.528,0,0.941-0.313,1.239-0.938s0.447-1.475,0.447-2.549
			c0-1.168-0.157-2.039-0.471-2.615C32.747,72.164,32.367,71.875,31.92,71.875z"/>
		<path fill="#FFFFFF" d="M38.831,79.084c-0.5,0.336-0.966,0.502-1.398,0.502c-0.511,0-0.956-0.188-1.336-0.563
			s-0.656-0.893-0.83-1.553s-0.261-1.367-0.261-2.121c0-1.242,0.224-2.252,0.671-3.031c0.446-0.779,1.053-1.17,1.819-1.17
			c0.439,0,0.885,0.166,1.335,0.498v0.949c-0.471-0.48-0.906-0.721-1.307-0.721c-0.541,0-0.972,0.314-1.29,0.943
			c-0.319,0.629-0.479,1.521-0.479,2.678c0,0.969,0.153,1.771,0.46,2.408c0.306,0.637,0.727,0.955,1.262,0.955
			c0.41,0,0.861-0.246,1.354-0.738V79.084z"/>
		<path fill="#FFFFFF" d="M39.193,71.283h4.166v0.691h-1.745v7.482h-0.708v-7.482h-1.713V71.283z"/>
		<path fill="#FFFFFF" d="M46.072,71.148c0.717,0,1.297,0.381,1.74,1.143s0.665,1.832,0.665,3.211c0,1.238-0.229,2.229-0.687,2.971
			c-0.457,0.742-1.039,1.113-1.745,1.113c-0.72,0-1.306-0.365-1.756-1.098s-0.676-1.748-0.676-3.045c0-1.32,0.219-2.365,0.654-3.137
			C44.705,71.535,45.307,71.148,46.072,71.148z M46.104,71.875c-0.596,0-1.035,0.334-1.316,1c-0.282,0.666-0.423,1.537-0.423,2.615
			c0,1.02,0.146,1.834,0.441,2.441c0.294,0.607,0.702,0.91,1.224,0.91c0.528,0,0.941-0.313,1.239-0.938s0.447-1.475,0.447-2.549
			c0-1.168-0.157-2.039-0.471-2.615C46.932,72.164,46.552,71.875,46.104,71.875z"/>
		<path fill="#FFFFFF" d="M49.542,71.283h1.787c0.646,0,1.165,0.164,1.557,0.49s0.588,0.822,0.588,1.49
			c0,0.504-0.123,0.941-0.37,1.311c-0.246,0.369-0.63,0.646-1.151,0.834c0.358,0.102,0.623,0.277,0.795,0.525
			s0.303,0.611,0.392,1.092l0.437,2.432h-0.771l-0.294-1.969c-0.096-0.625-0.257-1.076-0.481-1.354
			c-0.226-0.277-0.551-0.416-0.976-0.416h-0.804v3.738h-0.707V71.283z M50.249,71.998v3.059h0.74c0.524,0,0.948-0.152,1.271-0.459
			c0.322-0.307,0.484-0.723,0.484-1.246c0-0.453-0.115-0.791-0.347-1.016c-0.23-0.225-0.576-0.338-1.037-0.338H50.249z"/>
		<path fill="#FFFFFF" d="M55.837,71.283h0.711l2.071,8.174h-0.81l-0.63-2.824h-1.97l-0.63,2.824h-0.788L55.837,71.283z
			 M56.18,72.279l-0.822,3.691h1.66L56.18,72.279z"/>
		<path fill="#FFFFFF" d="M59.252,71.283h1.713c0.865,0,1.511,0.355,1.937,1.064s0.639,1.738,0.639,3.09
			c0,0.758-0.097,1.457-0.29,2.098s-0.491,1.121-0.894,1.441s-0.866,0.48-1.392,0.48h-1.713V71.283z M59.976,71.998v6.768h0.991
			c0.646,0,1.112-0.299,1.396-0.896s0.427-1.492,0.427-2.68c0-1.037-0.147-1.828-0.442-2.373s-0.756-0.818-1.381-0.818H59.976z"/>
		<path fill="#FFFFFF" d="M66.732,71.148c0.717,0,1.296,0.381,1.739,1.143s0.666,1.832,0.666,3.211c0,1.238-0.229,2.229-0.687,2.971
			c-0.458,0.742-1.04,1.113-1.745,1.113c-0.721,0-1.306-0.365-1.756-1.098c-0.451-0.732-0.676-1.748-0.676-3.045
			c0-1.32,0.218-2.365,0.654-3.137S65.966,71.148,66.732,71.148z M66.765,71.875c-0.597,0-1.035,0.334-1.317,1
			s-0.423,1.537-0.423,2.615c0,1.02,0.147,1.834,0.441,2.441c0.295,0.607,0.702,0.91,1.224,0.91c0.528,0,0.942-0.313,1.24-0.938
			s0.446-1.475,0.446-2.549c0-1.168-0.156-2.039-0.471-2.615C67.592,72.164,67.211,71.875,66.765,71.875z"/>
		<path fill="#FFFFFF" d="M72.665,71.283h3.606v0.691h-2.883v2.877h2.724v0.68h-2.724v3.246h2.883v0.68h-3.606V71.283z"/>
		<path fill="#FFFFFF" d="M78.153,71.283l2.199,5.443l0.575,1.436c-0.039-1.469-0.059-2.229-0.059-2.279v-4.6h0.644v8.174h-0.724
			l-2.128-5.244c-0.061-0.148-0.174-0.465-0.341-0.949l-0.256-0.721c-0.01,0.164-0.016,0.26-0.016,0.287l0.027,0.633l0.005,0.908
			l-0.017,0.352v4.734h-0.643v-8.174H78.153z"/>
		<path fill="#FFFFFF" d="M85.396,71.283h0.724v8.174h-0.724V71.283z"/>
		<path fill="#FFFFFF" d="M88.252,71.283l2.199,5.443l0.574,1.436c-0.039-1.469-0.059-2.229-0.059-2.279v-4.6h0.645v8.174h-0.725
			l-2.127-5.244c-0.061-0.148-0.174-0.465-0.342-0.949l-0.255-0.721c-0.011,0.164-0.016,0.26-0.016,0.287l0.026,0.633l0.006,0.908
			l-0.017,0.352v4.734H87.52v-8.174H88.252z"/>
		<path fill="#FFFFFF" d="M96.07,78.654c-0.167,0.309-0.355,0.541-0.566,0.697s-0.443,0.234-0.699,0.234
			c-0.403,0-0.783-0.186-1.142-0.557s-0.62-0.885-0.786-1.541s-0.25-1.336-0.25-2.039c0-1.301,0.245-2.342,0.734-3.125
			c0.49-0.783,1.128-1.176,1.916-1.176c0.443,0,0.898,0.168,1.367,0.502v0.98c-0.486-0.504-0.947-0.756-1.384-0.756
			c-0.575,0-1.034,0.326-1.38,0.98c-0.347,0.652-0.52,1.537-0.52,2.656c0,0.918,0.145,1.705,0.434,2.357
			c0.287,0.652,0.656,0.979,1.106,0.979c0.318,0,0.593-0.174,0.823-0.525c0.23-0.35,0.346-0.779,0.346-1.289v-0.975h-1.363v-0.691
			h2.086v4.09h-0.461L96.07,78.654z"/>
		<path fill="#FFFFFF" d="M97.857,71.283h3.607v0.691h-2.884v2.877h2.724v0.68h-2.724v3.246h2.884v0.68h-3.607V71.283z"/>
		<path fill="#FFFFFF" d="M103.346,71.283l2.199,5.443l0.575,1.436c-0.039-1.469-0.059-2.229-0.059-2.279v-4.6h0.644v8.174h-0.724
			l-2.128-5.244c-0.061-0.148-0.174-0.465-0.341-0.949l-0.255-0.721c-0.011,0.164-0.016,0.26-0.016,0.287l0.025,0.633l0.006,0.908
			l-0.016,0.352v4.734h-0.645v-8.174H103.346z"/>
		<path fill="#FFFFFF" d="M108.094,71.283h0.724v8.174h-0.724V71.283z"/>
		<path fill="#FFFFFF" d="M110.229,71.283h3.607v0.691h-2.885v2.877h2.725v0.68h-2.725v3.246h2.885v0.68h-3.607V71.283z"/>
		<path fill="#FFFFFF" d="M115.027,71.283h1.787c0.645,0,1.164,0.164,1.557,0.49c0.391,0.326,0.588,0.822,0.588,1.49
			c0,0.504-0.123,0.941-0.371,1.311c-0.246,0.369-0.631,0.646-1.15,0.834c0.357,0.102,0.623,0.277,0.795,0.525
			s0.303,0.611,0.391,1.092l0.436,2.432h-0.771l-0.293-1.969c-0.096-0.625-0.256-1.076-0.48-1.354
			c-0.227-0.277-0.551-0.416-0.977-0.416h-0.803v3.738h-0.707V71.283z M115.734,71.998v3.059h0.738c0.525,0,0.949-0.152,1.273-0.459
			c0.322-0.307,0.482-0.723,0.482-1.246c0-0.453-0.115-0.791-0.346-1.016s-0.576-0.338-1.037-0.338H115.734z"/>
		<path fill="#FFFFFF" d="M120.672,68.998h0.797l-1.148,1.717h-0.447L120.672,68.998z M120.012,71.283h0.725v8.174h-0.725V71.283z"
			/>
		<path fill="#FFFFFF" d="M123.477,71.283h0.711l2.07,8.174h-0.809l-0.631-2.824h-1.969l-0.629,2.824h-0.789L123.477,71.283z
			 M123.818,72.279l-0.822,3.691h1.662L123.818,72.279z"/>
	</g>
	<g>
		
			<line fill="none" stroke="#FFFFFF" stroke-width="0.25" stroke-miterlimit="10" x1="128.483" y1="75.793" x2="147.675" y2="75.793"/>
		<line fill="none" stroke="#FFFFFF" stroke-width="0.25" stroke-miterlimit="10" x1="2.325" y1="75.793" x2="21.517" y2="75.793"/>
	</g>
</g>
</svg>
